<?xml version="1.0" standalone="no"?>
<!DOCTYPE svg PUBLIC "-//W3C//DTD SVG 1.1//EN" "http://www.w3.org/Graphics/SVG/1.1/DTD/svg11.dtd" >
<!--
2013-9-30: Created.
-->
<svg>
<metadata>
Created by iconfont
</metadata>
<defs>

<font id="iconfont" horiz-adv-x="1024" >
  <font-face
    font-family="iconfont"
    font-weight="500"
    font-stretch="normal"
    units-per-em="1024"
    ascent="896"
    descent="-128"
  />
    <missing-glyph />
    
    <glyph glyph-name="huanzhai1" unicode="&#58935;" d="M512 384m-512 0a512 512 0 1 1 1024 0 512 512 0 1 1-1024 0ZM512 594.661376c-116.34688 0-210.60608-94.314496-210.60608-210.604032 0-116.291584 94.316544-210.663424 210.60608-210.663424S722.60608 267.710464 722.60608 384 628.34688 594.661376 512 594.661376z m89.696256-217.02656l-83.27168-83.273728a9.0112 9.0112 0 0 0-12.791808 0l-83.329024 83.27168a9.0112 9.0112 0 0 0 0 12.78976l83.27168 83.273728a9.0112 9.0112 0 0 0 12.791808 0l83.329024-83.27168a9.0112 9.0112 0 0 0 0-12.791808z"  horiz-adv-x="1024" />

    
    <glyph glyph-name="jiechu1" unicode="&#58934;" d="M512 384m-512 0a512 512 0 1 1 1024 0 512 512 0 1 1-1024 0ZM511.389696 591.138816c-114.792448 0-207.857664-93.065216-207.857664-207.857664 0-114.7904 93.065216-207.855616 207.857664-207.855616 114.7904 0 207.855616 93.065216 207.855616 207.855616 0 23.113728-3.76832 45.34272-10.725376 66.0992l-1.980416 5.625856-50.440192-51.728384-0.86016-0.70656c-1.804288-1.2288-4.165632-1.284096-6.027264-0.139264l-0.872448 0.6656-67.08224 62.5664-4.933632 4.253696-67.08224 62.550016-0.74752 0.845824a5.541888 5.541888 0 0 0-0.208896 6.096896l0.77824 0.98304 45.228032 46.311424a208.41472 208.41472 0 0 1-42.901504 4.43392z m2.244608-127.92832a5.541888 5.541888 0 0 0 6.096896 0l0.86016-0.694272 80.592896-80.61952 0.720896-0.872448a5.541888 5.541888 0 0 0 0-6.098944l-0.720896-0.86016-80.592896-80.590848-0.86016-0.720896a5.541888 5.541888 0 0 0-6.096896 0l-0.872448 0.720896-80.592896 80.592896-0.70656 0.86016a5.541888 5.541888 0 0 0 0 6.096896l0.692224 0.872448 80.607232 80.592896 0.872448 0.70656v0.014336z m173.379584 64.602112a5.541888 5.541888 0 0 1-6.649856 0.692224l-0.970752-0.761856-52.10112-50.163712a5.541888 5.541888 0 0 1-0.458752-6.998016l0.74752-0.843776 19.06688-17.65376a5.541888 5.541888 0 0 1 6.62528-0.679936l0.968704 0.761856 52.13184 50.163712a5.541888 5.541888 0 0 1 0.442368 6.998016l-0.74752 0.82944-19.054592 17.65376z m-66.777088 53.39136a5.541888 5.541888 0 0 1-6.623232 0.692224l-0.970752-0.761856-52.129792-50.163712a5.541888 5.541888 0 0 1-0.444416-6.998016l0.749568-0.831488 19.052544-17.65376a5.541888 5.541888 0 0 1 6.651904-0.692224l0.970752 0.761856 52.10112 50.163712c1.798144 1.92512 1.98656 4.85376 0.458752 6.998016l-0.749568 0.843776-19.06688 17.641472z"  horiz-adv-x="1024" />

    
    <glyph glyph-name="huanzhai" unicode="&#58933;" d="M512 384m-512 0a512 512 0 1 1 1024 0 512 512 0 1 1-1024 0ZM573.085696 460.435456h-121.62048c-39.882752 0-76.412928-16.521216-94.603264-51.605504-16.896-32.544768-28.672-60.33408-35.332096-83.378176-6.551552-22.616064-11.722752-51.82464-15.527936-87.599104a58.765312 58.765312 0 0 1-0.346112-6.41024c0-32.89088 26.202112-59.715584 59.107328-61.233152l2.910208-0.067584H657.34656c2.207744 0 4.427776 0.108544 6.621184 0.344064 34.062336 3.612672 58.70592 33.8432 55.05024 67.506176-3.86048 35.483648-9.086976 64.63488-15.691776 87.45984-6.785024 23.42912-18.784256 51.439616-35.9936 84.03968-17.69472 33.554432-52.240384 49.840128-90.302464 50.888704l-3.944448 0.055296z m25.808896-83.43552a5.382144 5.382144 0 0 0 4.75136-2.879488 5.619712 5.619712 0 0 0-0.21504-5.64224l-0.63488-0.827392-104.763392-110.987264-1.214464-1.0752a13.080576 13.080576 0 0 0-15.847424-0.08192l-1.349632 1.15712c-0.741376 0.745472-41.191424 45.234176-61.059072 64.954368-1.431552 1.4336-2.269184 3.530752-2.510848 6.28736-0.23552 2.619392 1.368064 5.042176 3.831808 5.793792l1.081344 0.192512 29.949952 0.028672 1.038336-0.110592c0.677888-0.135168 1.323008-0.403456 1.90464-0.786432l0.80896-0.661504 34.430976-34.2016 73.463808 77.172736 0.837632 0.702464c0.589824 0.415744 1.255424 0.70656 1.95584 0.856064l1.081344 0.110592h32.473088-0.014336z m-7.950336 220.65152h-160.096256c-5.060608 0-10.010624-1.419264-14.27456-4.108288-11.640832-7.258112-15.679488-22.29248-9.23648-34.4064l1.087488-1.86368 20.35712-31.62112a53.272576 53.272576 0 0 1 41.64608-24.229888l3.198976-0.098304h74.539008c17.1008 0 33.097728 8.136704 43.055104 21.721088l1.792 2.62144 20.35712 31.606784a26.032128 26.032128 0 0 1 4.163584 14.108672 26.394624 26.394624 0 0 1-24.506368 26.202112l-2.06848 0.069632h-0.014336z"  horiz-adv-x="1024" />

    
    <glyph glyph-name="jiechu" unicode="&#58932;" d="M512 384m-512 0a512 512 0 1 1 1024 0 512 512 0 1 1-1024 0ZM572.57984 459.776h-121.618432c-39.882752 0-76.414976-16.523264-94.605312-51.605504-16.891904-32.546816-28.672-60.33408-35.330048-83.380224-6.551552-22.616064-11.722752-51.82464-15.529984-87.597056a58.765312 58.765312 0 0 1-0.344064-6.414336c0-32.89088 26.202112-59.713536 59.10528-61.229056l2.912256-0.069632h289.673216c2.205696 0 4.427776 0.110592 6.619136 0.344064 34.064384 3.612672 58.707968 33.8432 55.052288 67.506176-3.86048 35.483648-9.086976 64.636928-15.693824 87.45984-6.785024 23.431168-18.782208 51.439616-35.9936 84.041728-17.69472 33.552384-52.238336 49.840128-90.300416 50.886656L572.57984 459.776z m17.860608 137.216h-160.096256c-5.060608 0-10.012672-1.421312-14.27456-4.110336-11.64288-7.258112-15.679488-22.29248-9.238528-34.4064l1.089536-1.86368 20.355072-31.62112a53.272576 53.272576 0 0 1 41.648128-24.229888l3.198976-0.096256h74.539008c17.1008 0 33.09568 8.136704 43.055104 21.71904l1.792 2.62144 20.35712 31.608832a26.032128 26.032128 0 0 1 4.163584 14.106624 26.394624 26.394624 0 0 1-24.506368 26.202112l-2.06848 0.069632h-0.014336zM566.900736 294.006784c6.078464 0 10.91584-5.234688 10.91584-11.63264 0-6.422528-4.9152-11.63264-10.91584-11.63264h-43.751424v-27.119616c0-6.504448-4.9152-11.710464-10.969088-11.710464s-10.971136 5.206016-10.971136 11.710464v27.121664h-43.8272c-6.053888 0-10.893312 5.208064-10.893312 11.63264 0 6.395904 4.917248 11.630592 10.891264 11.630592h43.829248v23.261184h-43.776a11.339776 11.339776 0 0 0-10.309632 11.63264 11.3664 11.3664 0 0 0 10.309632 11.603968h26.515456l-28.338176 30.083072a12.158976 12.158976 0 0 0 0 16.494592 10.440704 10.440704 0 0 0 15.4624 0l40.155136-42.692608 40.18176 42.692608a10.467328 10.467328 0 0 0 15.437824 0 12.158976 12.158976 0 0 0 0-16.494592l-28.233728-30.083072h28.286976a10.627072 10.627072 0 0 0 10.149888-5.49888c2.142208-3.700736 2.142208-8.45824 0-12.1856a10.653696 10.653696 0 0 0-10.149888-5.49888h-43.751424v-23.314432h43.776-0.024576zM674.9696 241.563648l0.069632-3.893248-0.110592-0.002048-27.244544-0.475136c-3.014656-0.053248-5.455872-1.544192-5.425152-3.313664l0.114688-6.53312c0.03072-1.77152 2.523136-3.1744 5.537792-3.1232l27.244544 0.475136 0.108544 0.002048 0.069632-3.926016c0.038912-2.220032 3.895296-3.248128 6.060032-1.665024l14.67392 10.653696c1.35168 0.989184 1.325056 2.566144-0.06144 3.508224l-15.036416 10.1376c-2.220032 1.536-6.037504 0.376832-6.00064-1.8432z"  horiz-adv-x="1024" />

    
    <glyph glyph-name="tuikuan" unicode="&#58930;" d="M512 384m-512 0a512 512 0 1 1 1024 0 512 512 0 1 1-1024 0ZM482.064384 432.351232c119.52128 0 202.713088 29.661184 202.713088 66.342912v39.839744c0 36.5056-82.313216 66.342912-202.713088 66.342912-120.40192 0-189.200384-30.011392-189.200384-66.342912v-39.839744c0-36.681728 69.677056-66.342912 189.200384-66.342912z m-20.885504-125.31712a143.644672 143.644672 0 0 0 35.10272 94.07488h-7.899136c-100.39296 0-157.0816 20.00896-185.690112 47.212544-5.967872-5.08928-9.652224-12.460032-9.828352-20.35712v-54.935552c0-33.347584 61.779968-61.60384 168.31488-65.992704z m4.210688-46.68416c-85.823488 2.983936-137.07264 21.587968-162.34496 46.686208-6.144-5.08928-9.8304-12.46208-10.180608-20.359168v-54.935552c0-35.979264 73.187328-65.816576 198.32832-65.816576h36.503552a147.429376 147.429376 0 0 0-62.306304 94.425088z m141.205504 156.110848c-69.152768 0-125.315072-56.162304-125.315072-125.315072 0-69.15072 56.162304-125.313024 125.315072-125.313024 69.15072 0 125.313024 55.988224 125.313024 125.313024-0.16384 69.14048-56.172544 125.151232-125.313024 125.315072zM610.981888 273.330176l0.260096 7.424 0.208896-0.008192 51.943424-1.81248c5.748736-0.200704 10.5472 2.39616 10.665984 5.771264l0.436224 12.455936c0.116736 3.375104-4.489216 6.299648-10.237952 6.500352l-51.943424 1.814528-0.208896 0.006144 0.260096 7.487488c0.147456 4.233216-7.094272 6.57408-11.378688 3.774464l-29.016064-18.829312c-2.676736-1.748992-2.781184-4.755456-0.233472-6.688768l27.631616-20.80768c4.07552-3.15392 11.464704-1.323008 11.61216 2.912256z"  horiz-adv-x="1024" />

    
    <glyph glyph-name="qitashouru" unicode="&#58928;" d="M512 384m-512 0a512 512 0 1 1 1024 0 512 512 0 1 1-1024 0ZM540.71296 569.360384c-45.400064 0-87.218176-11.948032-87.218176-11.948032s-70.49216 33.45408-106.336256 26.284032c-37.03808-20.310016-2.390016-45.402112 14.336-63.32416-35.84-31.064064-58.54208-72.882176-62.128128-117.088256-8.361984-20.312064-13.142016-4.780032-22.700032-16.728064-4.780032-5.974016-15.532032-54.960128-1.193984-72.882176 22.700032-20.310016 35.842048 2.390016 60.934144-25.088 11.948032-15.53408 27.480064-28.676096 45.402112-40.624128 4.777984-4.780032-13.144064-13.144064-4.780032-39.428096 4.780032-9.558016 47.792128-10.752 59.74016-5.974016 7.168 5.974016 0 13.142016 4.777984 14.336 3.584-1.193984 5.974016-2.387968 9.558016-3.584 4.780032-3.584-5.974016-29.87008 14.338048-28.674048 7.168-1.196032 22.70208-1.196032 39.428096 0 9.558016 2.390016 5.974016 16.726016 9.558016 16.726016 9.558016-1.193984 19.11808-1.193984 28.676096-1.193984 27.480064 0 44.20608 1.193984 68.102144 7.168 14.336 2.390016-5.974016-17.92 5.974016-21.504 4.780032 2.387968 47.792128-5.976064 56.15616 4.777984 14.336 11.948032 0 48.986112 11.948032 54.960128 56.154112 34.648064 71.686144 78.856192 71.686144 139.790336 2.390016 101.556224-87.220224 183.998464-216.256512 183.998464zM392.56064 447.488c-9.558016 0-17.92 8.364032-17.92 17.922048s8.361984 17.922048 17.92 17.922048 17.922048-8.364032 17.922048-17.92c0-9.560064-8.364032-17.924096-17.92-17.924096z m301.08672 0c-3.584-4.777984-8.361984-7.168-14.336-7.168-3.584 0-7.168 1.193984-10.754048 3.584-22.700032 16.728064-50.182144 28.676096-81.24416 34.650112-9.560064 1.193984-19.11808 2.387968-29.872128 3.584-9.558016 0-17.92 8.364032-16.726016 19.116032 0 9.558016 8.364032 17.922048 19.116032 16.728064 11.948032 0 22.70208-2.390016 33.45408-3.584 35.844096-5.976064 69.298176-20.312064 96.77824-41.82016 8.364032-5.971968 9.558016-17.92 3.584-25.088z"  horiz-adv-x="1024" />

    
    <glyph glyph-name="touzishouyi" unicode="&#58926;" d="M512 384m-512 0a512 512 0 1 1 1024 0 512 512 0 1 1-1024 0ZM424.13056 615.424h-33.6896c-2.326528 0-4.210688-1.88416-4.210688-4.210688v-230.99392a63.19104 63.19104 0 0 1 0-119.181312v-104.6528c0-2.316288 1.8944-4.210688 4.210688-4.210688h33.6896c2.326528 0 4.212736 1.88416 4.212736 4.210688v104.67328a63.19104 63.19104 0 0 1 0 119.140352v231.0144c0 2.32448-1.88416 4.210688-4.212736 4.210688z m210.569216 0h-33.6896l-1.118208-0.147456a4.210688 4.210688 0 0 1-3.09248-4.063232v-104.6528l-3.62496-1.4336a63.17056 63.17056 0 0 1 3.62496-117.727232v-231.0144l0.145408-1.11616a4.212736 4.212736 0 0 1 4.063232-3.094528h33.691648l1.11616 0.147456a4.210688 4.210688 0 0 1 3.094528 4.063232v231.0144l3.64544 1.411072a63.17056 63.17056 0 0 1-3.62496 117.72928l-0.02048 104.67328-0.147456 1.11616a4.212736 4.212736 0 0 1-4.063232 3.094528z"  horiz-adv-x="1024" />

    
    <glyph glyph-name="baoxiaoshouru" unicode="&#58925;" d="M512 384m-512 0a512 512 0 1 1 1024 0 512 512 0 1 1-1024 0ZM645.849088 606.572544a22.13888 22.13888 0 0 0 22.13888-22.13888V371.9168c-54.022144 27.621376-120.13568 11.257856-155.0336-38.373376-34.895872-49.631232-27.928576-117.38112 16.340992-158.871552l-3.985408-2.656256a22.13888 22.13888 0 0 0-24.571904 0l-41.84064 27.89376a22.13888 22.13888 0 0 1-24.571904 0l-41.84064-27.89376a22.13888 22.13888 0 0 0-24.571904 0L323.637248 201.5232a22.13888 22.13888 0 0 0-9.85088 18.417664V584.43776a22.13888 22.13888 0 0 0 22.13888 22.136832h309.92384z m-143.89248-199.237632h-110.688256a11.06944 11.06944 0 0 1-1.992704-21.960704l1.992704-0.176128h110.686208a11.06944 11.06944 0 0 1 0 22.13888z m88.549376 66.412544h-199.237632a11.06944 11.06944 0 0 1-1.992704-21.960704l1.992704-0.176128h199.237632a11.06944 11.06944 0 1 1 0 22.136832z m0 66.412544h-199.237632a11.06944 11.06944 0 0 1-1.992704-21.960704l1.992704-0.176128h199.237632a11.06944 11.06944 0 1 1 0 22.136832zM612.642816 163.823616a99.618816 99.618816 0 1 1 0 199.235584c-55.017472 0-99.618816-44.599296-99.618816-99.616768 0-55.01952 44.601344-99.618816 99.618816-99.618816z m45.492224 74.1376c5.091328 0 9.142272-4.38272 9.142272-9.740288 0-5.380096-4.11648-9.740288-9.142272-9.740288h-36.63872v-22.71232c0-5.44768-4.11648-9.80992-9.18528-9.80992-5.070848 0-9.187328 4.36224-9.187328 9.80992v22.71232h-36.704256c-5.0688 0-9.119744 4.36224-9.119744 9.740288 0 5.357568 4.11648 9.740288 9.119744 9.740288h36.704256v19.480576h-36.6592a9.496576 9.496576 0 0 0-8.634368 9.740288 9.519104 9.519104 0 0 0 8.634368 9.719808h22.202368l-23.730176 25.1904a10.182656 10.182656 0 0 0 0 13.815808 8.74496 8.74496 0 0 0 12.949504 0l33.62816-35.751936 33.64864 35.751936a8.76544 8.76544 0 0 0 12.926976 0 10.182656 10.182656 0 0 0 0-13.81376l-23.642112-25.192448h23.687168a8.89856 8.89856 0 0 0 8.4992-4.605952c1.794048-3.098624 1.794048-7.084032 0-10.205184a8.921088 8.921088 0 0 0-8.4992-4.603904h-36.63872v-19.525632h36.6592-0.02048z"  horiz-adv-x="1024" />

    
    <glyph glyph-name="yiwaisuode" unicode="&#58923;" d="M512 384m-512 0a512 512 0 1 1 1024 0 512 512 0 1 1-1024 0ZM445.618176 478.015488h145.330176c9.801728 0 19.236864 4.149248 25.52832 11.669504 14.997504 17.825792 29.220864 39.706624 32.413696 59.31008 6.426624 39.24992-10.395648 59.170816-59.172864 59.170816s-32.27648-32.002048-51.24096-34.646016c-14.1312-1.959936-13.62944 16.685056-35.82976 34.60096-15.95392 12.81024-33.824768-23.38816-54.8864-23.61344-24.571904-0.319488-59.12576 6.47168-59.12576-35.51232 0-16.95744 14.860288-39.888896 31.08864-58.90048 6.520832-7.612416 15.910912-12.079104 25.894912-12.079104z m181.2992-37.382144c-7.749632 8.798208-19.009536 13.7216-30.726144 13.7216h-155.086848c-11.214848 0-22.018048-4.511744-29.76768-12.62592-48.73216-51.05664-93.681664-123.951104-93.681664-177.104896 0-46.864384 47.091712-106.0352 105.168896-106.0352h180.068352c58.077184 0 105.168896 58.669056 105.168896 106.0352 0 54.110208-36.151296 124.952576-81.143808 176.009216z m-47.366144-64.503808l-31.1808-56.573952c-2.736128-4.968448 0.866304-11.077632 6.518784-11.077632h8.843264a7.481344 7.481344 0 0 0 7.4752-7.4752 7.481344 7.481344 0 0 0-7.4752-7.477248h-22.245376a7.831552 7.831552 0 0 1-7.841792-7.794688v-3.692544a7.481344 7.481344 0 0 1 7.4752-7.4752h22.611968a7.481344 7.481344 0 0 0 7.4752-7.477248 7.450624 7.450624 0 0 0-7.4752-7.4752h-22.60992a7.481344 7.481344 0 0 1-7.4752-7.477248v-19.009536a7.481344 7.481344 0 0 0-7.477248-7.4752h-13.539328a7.481344 7.481344 0 0 0-7.4752 7.4752v19.009536a7.481344 7.481344 0 0 1-7.477248 7.4752h-22.38464a7.481344 7.481344 0 0 0-7.4752 7.4752 7.450624 7.450624 0 0 0 7.4752 7.477248h22.339584a7.520256 7.520256 0 0 1 7.520256 7.4752l0.047104 3.647488a7.821312 7.821312 0 0 1-7.841792 7.886848h-22.063104a7.481344 7.481344 0 0 0-7.4752 7.4752 7.481344 7.481344 0 0 0 7.4752 7.477248h8.615936c5.697536 0 9.252864 6.109184 6.518784 11.07968l-31.182848 56.571904c-2.73408 4.968448 0.866304 11.077632 6.518784 11.077632h14.862336c2.82624 0 5.425152-1.59744 6.656-4.102144l25.391104-50.64704c2.736128-5.470208 10.575872-5.470208 13.357056 0l25.391104 50.64704a7.46496 7.46496 0 0 0 6.656 4.102144h14.862336c5.742592-0.09216 9.345024-6.15424 6.608896-11.122688z"  horiz-adv-x="1024" />

    
    <glyph glyph-name="lixishouru" unicode="&#58922;" d="M512 384m-512 0a512 512 0 1 1 1024 0 512 512 0 1 1-1024 0ZM482.064384 430.303232c119.52128 0 202.713088 29.661184 202.713088 66.342912v39.839744c0 36.5056-82.313216 66.342912-202.713088 66.342912-120.40192 0-189.200384-30.011392-189.200384-66.342912v-39.839744c0-36.681728 69.677056-66.342912 189.200384-66.342912z m-20.885504-125.31712a143.644672 143.644672 0 0 0 35.10272 94.07488h-7.899136c-100.39296 0-157.0816 20.00896-185.690112 47.212544-5.967872-5.08928-9.652224-12.460032-9.828352-20.35712v-54.935552c0-33.347584 61.779968-61.60384 168.31488-65.992704z m4.210688-46.68416c-85.823488 2.983936-137.07264 21.587968-162.34496 46.686208-6.144-5.08928-9.8304-12.46208-10.180608-20.359168v-54.935552c0-35.979264 73.187328-65.816576 198.32832-65.816576h36.503552a147.429376 147.429376 0 0 0-62.306304 94.425088z m141.49632 155.817984c-69.15072 0-125.313024-56.162304-125.313024-125.313024 0-69.152768 56.162304-125.31712 125.313024-125.31712 69.152768 0 125.31712 55.990272 125.31712 125.31712-0.165888 69.14048-56.17664 125.149184-125.31712 125.313024zM653.02528 302.209024h-0.022528l-90.288128 0.16384a12.111872 12.111872 0 0 0 0.02048 24.221696h0.024576l90.288128-0.16384a12.111872 12.111872 0 0 0-0.024576-24.221696z m0-44.187648h-0.022528l-90.288128 0.16384a12.111872 12.111872 0 0 0 0.02048 24.221696h0.024576l90.288128-0.16384a12.111872 12.111872 0 0 0-0.024576-24.221696zM607.879168 207.85152h-0.026624a12.111872 12.111872 0 0 0-12.085248 12.136448l0.208896 93.956096a12.111872 12.111872 0 0 0 12.111872 12.0832h0.028672a12.109824 12.109824 0 0 0 12.0832-12.136448l-0.208896-93.956096a12.11392 12.11392 0 0 0-12.111872-12.0832zM608.157696 302.290944a12.111872 12.111872 0 0 0-8.577024 20.66432l43.812864 43.931648a12.11392 12.11392 0 0 0 17.152-17.104896L616.73472 305.84832a12.075008 12.075008 0 0 0-8.577024-3.557376zM607.92832 302.225408a12.077056 12.077056 0 0 0-8.579072 3.559424l-43.810816 43.933696a12.11392 12.11392 0 0 0 17.152 17.104896l43.810816-43.931648a12.11392 12.11392 0 0 0-8.574976-20.66432z"  horiz-adv-x="1024" />

    
    <glyph glyph-name="touzihuishou" unicode="&#58921;" d="M512 384m-512 0a512 512 0 1 1 1024 0 512 512 0 1 1-1024 0ZM588.300288 307.603456l0.059392 40.056832s-53.97504-66.48832-53.97504-93.505536c0-27.015168 53.97504-93.446144 53.97504-93.446144l-0.059392 39.940096h53.858304a37.138432 37.138432 0 0 1 32.571392 18.59584l66.605056 115.550208a54.331392 54.331392 0 0 0-47.425536-27.191296h-105.609216z m30.52544 267.239424a42.297344 42.297344 0 0 1-73.680896-0.233472s-12.398592-21.344256-24.85248-43.03872l25.145344-43.565056-34.9696-19.591168s84.50048-13.449216 107.88864 0.059392c23.392256 13.508608 53.97504 93.446144 53.97504 93.446144l-34.617344-20.058112c0.057344 0-13.508608 23.625728-18.888704 32.980992z m113.680384-234.725376a42.518528 42.518528 0 0 1-0.176128 42.686464s-26.724352 46.31552-48.009216 83.0976l-92.5696-53.508096 53.972992-93.446144c25.028608 0 49.70496-0.059392 49.70496-0.059392a42.643456 42.643456 0 0 1 37.076992 21.229568z m-322.1504 21.751808l34.676736-20.056064s-30.584832 79.937536-53.97504 93.446144c-23.390208 13.508608-107.95008 0-107.95008 0l34.678784-19.881984-26.959872-46.665728a37.425152 37.425152 0 0 1-0.17408-37.541888l66.6624-115.492864a54.6816 54.6816 0 0 0 0.176128 54.675456l52.862976 91.516928z m-43.976704-141.162496A42.520576 42.520576 0 0 1 403.456 199.4752h95.961088v106.9568h-108.007424c-12.455936-21.63712-24.793088-43.03872-24.85248-43.098112a42.41408 42.41408 0 0 1-0.176128-42.62912z m-6.08256 270.22336l92.9792-53.624832s69.705728 120.989696 82.45248 142.860288a53.035008 53.035008 0 0 0 46.4896 27.017216h-133.3248a37.95968 37.95968 0 0 1-32.33792-18.888704c-11.814912-19.122176-56.25856-97.363968-56.25856-97.363968z"  horiz-adv-x="1024" />

    
    <glyph glyph-name="shouzhai" unicode="&#58920;" d="M512 384m-512 0a512 512 0 1 1 1024 0 512 512 0 1 1-1024 0ZM299.321344 301.32224c44.8512-10.180608 113.93024-48.5888 113.93024-48.5888s49.750016-15.208448 84.80768-4.63872c24.22784 7.217152 56.578048 17.913856 69.208064 30.80192 11.85792 11.986944 10.56768 24.100864 0.516096 22.554624-20.750336-3.350528-100.399104-10.825728-122.052608-4.124672-21.52448 6.832128-33.767424 32.73728-24.358912 48.5888 0 0 28.225536 1.675264 93.569024 16.24064 65.343488 14.56128 81.584128 24.743936 109.807616 12.11392 21.782528-9.795584 70.11328-38.66624 127.72352-53.61664 9.408512-2.44736 15.208448-11.984896 13.017088-21.522432-6.313984-28.61056-19.847168-84.41856-33.122304-112.386048-0.64512-1.417216-1.29024-2.705408-1.804288-3.9936-2.83648-4.253696-7.4752-7.2192-12.888064-7.2192-1.54624 0-3.09248 0.38912-4.640768 0.903168l-1.54624 0.387072c-18.300928 4.38272-37.634048 9.408512-50.13504 11.083776-28.09856 3.7376-155.68896-29.642752-191.26272-32.350208-35.442688-2.705408-75.524096 34.541568-101.56032 48.5888-26.161152 13.920256-109.93664 68.694016-109.93664 68.694016s-4.122624 38.795264 40.728576 28.483584z m134.680576 78.016512c-63.926272 0-115.6096 51.939328-115.6096 115.994624 0 64.055296 51.683328 115.994624 115.6096 115.994624 63.924224 0 115.607552-51.939328 115.607552-115.994624 0-64.055296-51.683328-115.994624-115.6096-115.994624z m48.644096 100.95616H445.39904v14.9504h37.246976v22.4256h-29.128704l26.1632 31.318016-15.980544 13.40416-29.513728-35.313664-29.515776 35.313664-15.980544-13.40416 26.292224-31.318016h-29.25568v-22.4256h37.246976v-14.9504h-37.246976v-22.4256h37.246976v-30.029824h22.4256V457.87136h37.246976v22.4256z"  horiz-adv-x="1024" />

    
    <glyph glyph-name="jieru" unicode="&#58919;" d="M512 384m-512 0a512 512 0 1 1 1024 0 512 512 0 1 1-1024 0ZM528.064512 596.344832c-8.4992 8.495104-22.272 8.495104-30.7712 0L291.866624 390.940672a10.881024 10.881024 0 0 1 7.704576-18.5856l60.768256 0.012288v-184.971264c0-12.017664 9.742336-21.762048 21.762048-21.762048H643.23584c12.017664 0 21.76 9.744384 21.76 21.762048V372.36736h60.790784a10.881024 10.881024 0 0 1 7.692288 18.573312l-205.4144 205.40416z m-69.091328-172.16512a13.38368 13.38368 0 0 0 19.965952-0.032768l32.804864-32.956416 32.804864 32.956416 1.05472 1.024a13.38368 13.38368 0 0 0 17.952768-0.32768 13.600768 13.600768 0 0 0 0-19.83488l-28.962816-29.181952h34.42688l1.370112-0.065536c6.78912-0.69632 12.077056-6.463488 12.077056-13.469696a13.492224 13.492224 0 0 0-13.449216-13.545472h-43.8272v-24.983552l43.8272-0.075776 1.37216-0.065536c6.78912-0.69632 12.077056-6.463488 12.077056-13.469696a13.492224 13.492224 0 0 0-13.449216-13.545472h-43.8272v-39.409664l-0.065536-1.3824a13.492224 13.492224 0 0 0-13.381632-12.15488 13.492224 13.492224 0 0 0-13.449216 13.53728v39.409664h-43.8272l-1.37216 0.075776a13.502464 13.502464 0 0 0-12.077056 13.459456 13.492224 13.492224 0 0 0 13.449216 13.535232h43.8272v24.981504h-43.8272l-1.37216 0.075776a13.502464 13.502464 0 0 0-12.077056 13.481984 13.492224 13.492224 0 0 0 13.449216 13.535232h34.42688l-28.987392 29.300736-1.032192 1.056768a13.611008 13.611008 0 0 0 0.108544 18.071552h-0.01024z"  horiz-adv-x="1024" />

    
    <glyph glyph-name="jiangjin" unicode="&#58918;" d="M512 384m-512 0a512 512 0 1 1 1024 0 512 512 0 1 1-1024 0ZM340.371456 296.167424l-43.710464-75.74528c-4.308992-7.493632 2.060288-16.60928 10.614784-15.048704l57.573376 10.366976a10.15808 10.15808 0 0 0 11.3664-6.557696l19.79392-55.076864c2.934784-8.116224 13.98784-9.115648 18.36032-1.622016l40.026112 69.312512c-45.584384 12.238848-85.23776 38.653952-114.024448 74.371072z m342.822912 0.937984a220.16 220.16 0 0 0-113.524736-75.0592l40.15104-69.562368c4.308992-7.49568 15.423488-6.494208 18.358272 1.622016l19.795968 55.015424a10.15808 10.15808 0 0 0 11.3664 6.555648l57.573376-10.364928c8.491008-1.562624 14.923776 7.61856 10.614784 15.048704l-44.335104 76.744704z m-171.239424 324.212736c-103.407616 0-187.584512-84.174848-187.584512-187.584512 0-39.901184 12.61568-76.869632 33.970176-107.341824 33.970176-48.45568 90.107904-80.24064 153.614336-80.24064 103.471104 0 187.584512 84.1728 187.584512 187.582464s-84.113408 187.584512-187.584512 187.584512zM560.551936 446.537728h-0.024576l-96.50176 0.17408a12.945408 12.945408 0 0 0 0.024576 25.890816h0.024576l96.50176-0.17408a12.945408 12.945408 0 0 0-0.024576-25.890816z m0-47.228928h-0.024576l-96.50176 0.17408a12.94336 12.94336 0 0 0 0.024576 25.890816h0.024576l96.50176-0.176128a12.94336 12.94336 0 0 0-0.024576-25.888768zM512.301056 345.686016h-0.028672a12.945408 12.945408 0 0 0-12.916736 12.972032l0.223232 100.421632a12.945408 12.945408 0 0 0 12.94336 12.916736h0.03072a12.94336 12.94336 0 0 0 12.916736-12.97408l-0.223232-100.419584a12.947456 12.947456 0 0 0-12.94336-12.916736zM512.598016 446.623744a12.945408 12.945408 0 0 0-9.166848 22.08768l46.82752 46.956544a12.947456 12.947456 0 0 0 18.331648-18.284544l-46.825472-46.956544a12.906496 12.906496 0 0 0-9.166848-3.803136zM512.350208 446.55616c-3.31776 0-6.63552 1.26976-9.166848 3.803136l-46.825472 46.956544a12.947456 12.947456 0 0 0 18.331648 18.282496l46.825472-46.954496a12.947456 12.947456 0 0 0-9.1648-22.08768z"  horiz-adv-x="1024" />

    
    <glyph glyph-name="xinzi" unicode="&#58915;" d="M512 384m-512 0a512 512 0 1 1 1024 0 512 512 0 1 1-1024 0ZM685.176832 478.046208h-31.121408l5.521408 16.062464c6.776832 20.5824-4.517888 42.917888-24.848384 49.946624l-154.10176 50.948096c-10.039296 3.262464-20.830208 2.510848-30.117888-2.258944-9.535488-4.517888-16.31232-12.8-19.574784-22.839296-0.251904-1.00352-2.258944-7.528448-2.760704-10.039296l-1.00352 0.251904c-10.041344 2.5088-20.832256 1.00352-29.868032-4.517888-8.78592-5.271552-15.560704-14.30528-17.8176-24.344576l-13.051904-53.20704h-23.341056c-19.828736 0-35.8912-16.064512-35.8912-35.8912v-203.042816c0-38.150144 31.121408-69.271552 69.271552-69.271552h308.70528c16.81408 0 30.37184 13.553664 30.37184 30.369792V447.678464c0.24576 16.81408-13.55776 30.367744-30.37184 30.367744z m-240.18944 90.60352l2.00704 6.025216c2.260992 6.776832 9.78944 10.79296 16.818176 8.282112l154.10176-50.950144c3.262464-1.00352 6.273024-3.51232 7.780352-6.524928 1.50528-3.01056 1.757184-6.776832 0.751616-10.039296l-8.282112-24.59648h-12.046336c1.255424 9.035776-0.753664 18.071552-5.271552 25.851904-5.269504 8.78592-14.053376 15.560704-24.344576 17.8176l-132.265984 32.37888c0.249856 0.50176 0.50176 1.00352 0.751616 1.757184z m-48.439296-31.371264l0.251904 0.50176c1.00352 3.514368 3.01056 6.275072 6.275072 8.282112 3.01056 1.757184 6.524928 2.510848 10.039296 1.50528l157.61408-38.649856c3.514368-1.00352 6.275072-3.01056 8.28416-6.275072 1.755136-2.760704 2.5088-6.524928 1.50528-10.039296-0.251904-0.50176-0.251904-1.00352-0.50176-1.757184h-194.760704l11.292672 46.432256z m138.79296-181.960704h0.753664c3.262464-0.50176 7.278592-0.251904 10.79296 0 6.524928 0.50176 12.548096 0.50176 18.069504-1.757184 5.0176-2.5088 6.023168-7.528448 5.771264-11.544576-0.50176-4.268032-3.262464-9.035776-8.531968-10.2912-7.530496-0.751616-14.80704-0.751616-22.337536-0.50176-4.517888 0-9.285632 0.251904-13.80352 0h-2.00704v-22.337536h34.383872c6.02112 0.50176 12.046336-4.517888 12.548096-10.79296 0.50176-3.260416-0.50176-6.273024-3.01056-9.033728-2.510848-2.760704-5.77536-4.517888-9.78944-4.265984h-33.882112v-16.064512c0-6.273024 0-13.049856-0.251904-19.324928 0-3.01056-1.755136-6.023168-4.517888-8.282112-2.256896-2.00704-4.767744-3.01056-7.528448-3.01056h-1.255424c-5.771264 0.50176-10.79296 5.771264-11.042816 11.292672-0.249856 6.275072-0.249856 13.051904-0.249856 19.324928v16.064512h-16.314368c-6.275072 0-11.79648-0.251904-17.569792 0-3.01056-0.251904-6.273024 1.00352-8.783872 3.262464-2.258944 2.258944-3.51232 5.269504-3.51232 8.282112-0.503808 5.771264 4.51584 11.79648 10.541056 12.046336 6.524928 0.50176 13.80352 0.251904 20.078592 0.251904h16.31232v22.337536h-2.00704a131.178496 131.178496 0 0 1-14.055424 0c-8.282112-0.251904-16.314368-0.50176-23.59296 1.50528-5.521408 2.00704-7.276544 7.278592-7.276544 11.042816 0 3.764224 2.00704 9.035776 7.02464 11.042816 5.77536 1.507328 11.296768 1.00352 17.319936 0.753664 3.262464 0 7.278592-0.251904 10.541056 0h0.50176l6.524928 6.524928-1.50528 1.50528c-5.271552 5.523456-10.79296 10.79296-15.560704 15.560704-7.026688 7.028736-14.557184 14.557184-22.085632 22.337536-2.760704 2.510848-3.514368 6.025216-2.760704 10.2912 1.00352 4.517888 3.764224 8.030208 7.780352 9.285632h0.249856c5.019648 2.510848 11.042816-0.751616 14.30528-4.517888l36.644864-37.144576 1.50528 1.50528 16.314368 16.314368 0.751616 0.753664c5.773312 5.771264 11.544576 11.79648 17.317888 17.317888 5.521408 5.771264 10.039296 7.276544 14.557184 5.771264 3.764224-0.751616 7.278592-4.517888 8.282112-8.534016 1.00352-3.764224 0-8.030208-2.760704-10.541056-5.773312-6.02112-11.79648-12.046336-17.567744-18.069504l-0.503808-0.50176c-6.524928-6.275072-13.30176-13.30176-19.82464-20.078592l-1.005568-1.00352 6.023168-6.77888z"  horiz-adv-x="1024" />

    
    <glyph glyph-name="shezhi" unicode="&#58914;" d="M512 384m-512 0a512 512 0 1 1 1024 0 512 512 0 1 1-1024 0ZM546.125824 607.885312l141.572096-81.57184a69.033984 69.033984 0 0 0 34.57024-59.815936v-162.899968a69.033984 69.033984 0 0 0-34.57024-59.815936l-141.572096-81.57184a69.033984 69.033984 0 0 0-68.927488 0l-141.572096 81.57184A69.031936 69.031936 0 0 0 301.056 303.597568v162.899968a69.033984 69.033984 0 0 0 34.57024 59.815936l141.570048 81.57184a69.036032 69.036032 0 0 0 68.929536 0z m-44.855296-142.123008c-37.03808 0-67.06176-29.984768-67.06176-66.975744 0-36.988928 30.02368-66.973696 67.06176-66.973696 37.036032 0 67.06176 29.984768 67.06176 66.973696 0 36.990976-30.025728 66.975744-67.06176 66.975744z"  horiz-adv-x="1024" />

    
    <glyph glyph-name="qita" unicode="&#58913;" d="M512 384m-512 0a512 512 0 1 1 1024 0 512 512 0 1 1-1024 0ZM496.685056 187.711488l-91.131904-30.040064a43.823104 43.823104 0 0 0-57.53856 41.709568l0.18432 97.3312a43.823104 43.823104 0 0 1-8.32512 25.790464l-57.112576 78.880768a43.823104 43.823104 0 0 0 21.94432 67.3792l91.81184 29.853696a43.823104 43.823104 0 0 1 22.030336 16.11776l56.25856 78.333952a43.823104 43.823104 0 0 0 71.190528 0l56.25856-78.336a43.823104 43.823104 0 0 1 22.032384-16.103424l91.809792-29.865984a43.823104 43.823104 0 0 0 21.94432-67.3792l-57.112576-78.880768a43.823104 43.823104 0 0 1-8.327168-25.790464l0.186368-97.3312a43.823104 43.823104 0 0 0-57.540608-41.709568l-91.129856 30.040064a43.823104 43.823104 0 0 1-27.43296 0z"  horiz-adv-x="1024" />

    
    <glyph glyph-name="lixizhichu" unicode="&#58912;" d="M512 384m-512 0a512 512 0 1 1 1024 0 512 512 0 1 1-1024 0ZM327.931904 525.672448c0-49.354752 82.653184-89.36448 184.610816-89.36448 101.955584 0 184.60672 40.009728 184.60672 89.36448 0 49.3568-82.651136 89.366528-184.60672 89.366528-101.957632 0-184.610816-40.011776-184.610816-89.366528zM327.931904 445.41952v-57.02656c176.96768-105.240576 368.92672 0 368.92672 0V445.41952c-205.481984-90.834944-368.92672 0-368.92672 0zM327.931904 348.706816v-57.028608c176.96768-105.238528 368.92672 0 368.92672 0v57.028608c-205.481984-90.834944-368.92672 0-368.92672 0zM327.931904 254.932992v-57.028608c176.96768-105.238528 368.92672 0 368.92672 0v57.028608c-205.481984-90.834944-368.92672 0-368.92672 0z"  horiz-adv-x="1024" />

    
    <glyph glyph-name="touzikuisun" unicode="&#58911;" d="M512 384m-512 0a512 512 0 1 1 1024 0 512 512 0 1 1-1024 0ZM447.756288 305.471488s11.886592-14.528512 29.720576 0c17.836032 14.526464 79.241216 82.884608 79.241216 82.884608s14.528512 17.506304 31.041536 0c16.513024-17.506304 67.354624-92.78464 67.354624-92.78464s15.847424-27.080704 38.965248 0c19.894272 23.32672 36.831232 13.33248 41.152512 10.121216v-102.199296c0-17.506304-14.188544-31.696896-31.696896-31.696896h-380.35456c-17.508352 0-31.696896 14.188544-31.696896 31.696896V482.748416c1.204224-0.223232 2.461696-0.708608 3.739648-1.363968l152.53504-175.91296z m232.228864 38.2976c-20.422656 0-36.978688 16.55808-36.978688 36.980736 0 5.240832 1.120256 10.205184 3.084288 14.716928l-64.82944 80.064512c-3.65568-1.214464-7.489536-2.02752-11.558912-2.02752-5.545984 0-10.764288 1.31072-15.476736 3.495936l-56.705024-56.705024c1.204224-3.64544 2.00704-7.469056 2.00704-11.505664 0-20.422656-16.545792-36.978688-36.978688-36.978688-20.422656 0-36.978688 16.556032-36.978688 36.978688 0 4.554752 0.940032 8.865792 2.439168 12.890112l-88.346624 103.266304c-3.551232-1.130496-7.2704-1.910784-11.210752-1.910784-20.422656 0-36.978688 16.556032-36.978688 36.978688 0 20.422656 16.556032 36.978688 36.978688 36.978688 20.432896 0 36.978688-16.556032 36.978688-36.978688 0-4.743168-0.970752-9.23648-2.598912-13.398016l88.051712-102.905856c3.6864 1.234944 7.565312 2.060288 11.665408 2.060288 4.62848 0 9.023488-0.95232 13.101056-2.504704l58.277888 58.277888c-0.7168 2.875392-1.214464 5.842944-1.214464 8.93952 0 20.422656 16.556032 36.978688 36.978688 36.978688 20.424704 0 36.980736-16.556032 36.980736-36.978688 0-4.575232-0.94208-8.896512-2.451456-12.94336l65.85344-81.321984c3.170304 0.888832 6.445056 1.511424 9.91232 1.511424 20.420608 0 36.97664-16.556032 36.97664-36.978688 0-20.422656-16.556032-36.978688-36.978688-36.978688z"  horiz-adv-x="1024" />

    
    <glyph glyph-name="touzi" unicode="&#58910;" d="M512 384m-512 0a512 512 0 1 1 1024 0 512 512 0 1 1-1024 0ZM578.291712 305.471488s-11.886592-14.528512-29.720576 0c-17.836032 14.526464-79.241216 82.884608-79.241216 82.884608s-14.528512 17.506304-31.041536 0c-16.513024-17.506304-67.354624-92.78464-67.354624-92.78464s-15.847424-27.080704-38.965248 0c-19.894272 23.32672-36.831232 13.33248-41.152512 10.121216v-102.199296c0-17.506304 14.188544-31.696896 31.696896-31.696896h380.35456c17.508352 0 31.696896 14.188544 31.696896 31.696896V482.748416c-1.204224-0.223232-2.461696-0.708608-3.739648-1.363968l-152.53504-175.91296z m-232.228864 38.2976c20.422656 0 36.978688 16.55808 36.978688 36.980736a36.74112 36.74112 0 0 1-3.084288 14.716928l64.82944 80.064512c3.65568-1.214464 7.489536-2.02752 11.558912-2.02752 5.545984 0 10.764288 1.31072 15.476736 3.495936l56.705024-56.705024c-1.204224-3.64544-2.00704-7.469056-2.00704-11.505664 0-20.422656 16.545792-36.978688 36.978688-36.978688 20.422656 0 36.978688 16.556032 36.978688 36.978688 0 4.554752-0.940032 8.865792-2.439168 12.890112l88.346624 103.266304c3.551232-1.130496 7.2704-1.910784 11.210752-1.910784 20.422656 0 36.978688 16.556032 36.978688 36.978688 0 20.422656-16.556032 36.978688-36.978688 36.978688-20.432896 0-36.978688-16.556032-36.978688-36.978688 0-4.743168 0.970752-9.23648 2.598912-13.398016l-88.051712-102.905856c-3.6864 1.234944-7.565312 2.060288-11.665408 2.060288-4.62848 0-9.023488-0.95232-13.101056-2.504704l-58.277888 58.277888c0.7168 2.875392 1.214464 5.842944 1.214464 8.93952 0 20.422656-16.556032 36.978688-36.978688 36.978688-20.424704 0-36.980736-16.556032-36.980736-36.978688 0-4.575232 0.94208-8.896512 2.451456-12.94336l-65.85344-81.321984c-3.170304 0.888832-6.445056 1.511424-9.91232 1.511424-20.420608 0-36.97664-16.556032-36.97664-36.978688 0-20.422656 16.556032-36.978688 36.978688-36.978688z"  horiz-adv-x="1024" />

    
    <glyph glyph-name="lvhang" unicode="&#58909;" d="M512 384m-512 0a512 512 0 1 1 1024 0 512 512 0 1 1-1024 0ZM730.447872 175.712256h-49.473536c-5.04832 0-9.179136 5.414912-9.179136 10.510336l-0.045056-1.286144c0.274432 43.759616-15.282176 130.77504-90.914816 242.169856l-0.229376 0.274432a4.7616 4.7616 0 0 0-0.872448 2.707456c0 2.019328 3.121152 3.719168 4.864 4.36224l-1.880064 0.045056c45.021184 17.54112 89.812992-6.84032 108.12416-19.791872l0.047104 0.045056a4.313088 4.313088 0 0 1 6.791168 4.497408l-0.09216 0.458752c-14.823424 58.744832-62.736384 76.412928-81.047552 81.0496v0.137216a4.634624 4.634624 0 0 0-2.523136 7.663616c16.750592 20.205568 46.58176 21.123072 64.294912 20.342784v0.045056a4.360192 4.360192 0 0 1 4.315136 4.36224 4.395008 4.395008 0 0 1-1.605632 3.405824c-53.32992 42.244096-107.300864 11.472896-126.253056 0.321536l-0.55296-0.458752c1.88416 2.340864-0.96256-0.09216-1.787904-0.09216a4.58752 4.58752 0 0 0-4.589568 4.634624h-0.137216c-1.744896 35.579904 3.487744 54.177792 9.775104 65.34144a4.325376 4.325376 0 0 1-5.41696 6.10304l0.047104-0.090112c-33.13664-12.357632-55.027712-45.367296-62.369792-57.4464v0.88064c-0.77824-1.376256-2.29376-3.176448-3.946496-3.176448a4.47488 4.47488 0 0 0-2.936832 1.101824l-0.09216 0.733184c-44.517376 28.110848-84.719616 21.62688-105.279488 12.310528l-0.18432-0.045056a4.222976 4.222976 0 0 1-2.57024-4.405248c0.180224-2.050048 1.767424-3.694592 3.80928-3.948544l0.229376 0.09216c17.944576-2.889728 46.30528-13.412352 59.24864-51.34336h1.193984a4.624384 4.624384 0 0 0-2.936832-6.240256l-0.413696-0.09216c-17.072128-5.920768-77.101056-35.303424-47.683584-125.118464 0.458752-1.92512 2.156544-3.395584 4.222976-3.395584 2.019328 0 3.71712 1.376256 4.175872 3.258368 8.76544 20.938752 30.01344 62.85312 63.469568 62.48448l-3.028992-0.045056a4.612096 4.612096 0 0 0 4.589568-4.636672l-0.045056-0.503808c-1.974272-20.527104-3.166208-101.33504 47.683584-124.9792l-0.36864-0.55296c0.55296-0.227328 1.14688-0.411648 1.837056-0.411648a4.313088 4.313088 0 0 1 4.130816 5.414912l-0.96256 4.497408c-5.464064 26.85952-12.8512 90.548224 28.819456 99.313664l0.274432-1.560576c0.229376 0.047104 0.36864 1.560576 0.598016 1.560576 2.019328 0 3.71712-1.51552 4.313088-3.350528l0.18432-0.229376c14.317568-34.10944 46.67392-109.225984 23.222272-228.022272h-0.047104c-0.733184-4.313088-4.497408-8.810496-8.994816-8.810496h-116.109312c5.414912 1.101824 9.498624 5.185536 9.498624 10.921984h1.837056c9.82016 0 18.999296 7.53664 18.999296 17.451008v107.44832c0 9.91232-12.804096 14.319616-21.52448 14.319616h-7.112704l0.090112 19.562496c0 5.04832-4.313088 9.177088-9.682944 9.177088h-47.72864c-5.23264 0-7.067648-3.612672-7.067648-8.077312l-0.229376-20.559872-9.545728 0.047104c-10.510336 0-19.001344-7.90528-19.001344-17.680384v-104.466432c0-9.728 6.701056-17.63328 17.211392-17.63328h0.09216c0-5.646336 6.561792-9.455616 11.976704-10.510336h-89.72288c-6.28736 0-11.380736-3.946496-11.380736-10.326016a11.440128 11.440128 0 0 1 11.382784-11.53024h436.1728a11.472896 11.472896 0 0 1 11.380736 11.53024c0.045056 6.332416-5.04832 10.233856-11.33568 10.233856z m-297.068544 116.994048c0 2.57024 3.211264 4.726784 7.204864 4.726784 3.946496 0 7.204864-2.064384 7.204864-4.726784v-69.609472c0-2.57024-3.211264-4.67968-7.204864-4.67968-3.9936 0-7.204864 2.064384-7.204864 4.67968v69.61152z m-35.844096 47.753216h35.889152v-14.331904H397.53728v14.342144-0.01024z m-14.317568-47.753216c0 2.57024 3.211264 4.726784 7.204864 4.726784 3.946496 0 7.204864-2.064384 7.204864-4.726784v-69.609472c0-2.57024-3.211264-4.67968-7.204864-4.67968-3.9936 0-7.204864 2.064384-7.204864 4.67968v69.61152z m21.52448-102.846464h21.477376c0-5.79584 6.56384-13.000704 11.978752-14.055424h-45.89568c5.371904 1.05472 12.439552 8.261632 12.439552 14.055424z"  horiz-adv-x="1024" />

    
    <glyph glyph-name="yiliao" unicode="&#58908;" d="M512 384m-512 0a512 512 0 1 1 1024 0 512 512 0 1 1-1024 0ZM710.670336 498.20672H654.68416l-9.22624 58.351616c-3.792896 24.016896-24.209408 41.457664-48.531456 41.457664h-171.905024c-24.322048 0-44.73856-17.440768-48.531456-41.457664l-9.22624-58.351616h-55.984128c-18.096128 0-32.753664-14.655488-32.753664-32.751616v-262.719488c0-18.096128 14.657536-32.751616 32.753664-32.751616h399.388672c18.096128 0 32.753664 14.655488 32.753664 32.751616V465.455104c0 18.096128-14.657536 32.751616-32.753664 32.751616z m-135.00416-177.4592h-48.31232v-48.306176c0-9.033728-7.34208-16.375808-16.377856-16.375808s-16.377856 7.34208-16.377856 16.375808v48.308224h-48.31232c-9.035776 0-16.377856 7.34208-16.377856 16.375808 0 9.03168 7.34208 16.375808 16.377856 16.375808h48.31232v48.308224c0 9.03168 7.34208 16.37376 16.377856 16.37376s16.377856-7.340032 16.377856-16.37376v-48.308224h48.31232c9.035776 0 16.377856-7.34208 16.377856-16.375808a16.371712 16.371712 0 0 0-16.377856-16.375808z m-175.23712 177.4592l8.40704 53.248a16.306176 16.306176 0 0 0 16.187392 13.809664h171.905024a16.326656 16.326656 0 0 0 16.187392-13.809664l8.40704-53.248H400.429056z"  horiz-adv-x="1024" />

    
    <glyph glyph-name="renqing" unicode="&#58907;" d="M512 384m-512 0a512 512 0 1 1 1024 0 512 512 0 1 1-1024 0ZM733.622272 553.459712c-18.0224 4.829184-37.382144 5.584896-55.984128 2.187264a131.55328 131.55328 0 0 1-41.209856-15.020032 131.536896 131.536896 0 0 1-28.18048 33.613824c-14.409728 12.242944-31.551488 21.266432-49.573888 26.095616-31.8464 8.534016-64.62464 4.386816-92.297216-11.679744-27.662336-16.058368-47.616-42.51648-56.184832-74.493952-20.811776-77.668352 28.839936-155.643904 103.99744-273.67424l3.035136-4.767744 26.54208-40.904704 8.511488 4.34176 34.850816 17.7664 5.081088 2.648064c124.1088 64.641024 206.10048 107.34592 226.912256 185.018368 8.568832 31.97952 4.517888 64.866304-11.409408 92.606464-15.93344 27.748352-42.246144 47.730688-74.090496 56.262656zM272.754688 415.35488c-6.111232-9.060352-10.22976-19.634176-11.90912-30.57664a77.074432 77.074432 0 0 1 0.415744-25.665536 77.06624 77.06624 0 0 1-23.95136-9.22624c-9.517056-5.656576-17.77664-13.43488-23.88992-22.499328-10.801152-16.013312-14.778368-34.947072-11.196416-53.313536 3.581952-18.36032 14.37696-34.424832 30.400512-45.232128 38.916096-26.249216 91.47392-13.545472 171.02848 5.6832l3.213312 0.77824 27.664384 6.938624-0.770048 5.533696-3.149824 22.665216-0.49152 3.313664c-11.972608 80.969728-19.881984 134.46144-58.79808 160.712704-16.023552 10.807296-34.961408 14.798848-53.327872 11.241472-18.37056-3.559424-34.43712-14.338048-45.238272-30.35136z"  horiz-adv-x="1024" />

    
    <glyph glyph-name="tongxun" unicode="&#58906;" d="M512 384m-512 0a512 512 0 1 1 1024 0 512 512 0 1 1-1024 0ZM508.923904 487.2704c27.336704 0 49.491968-22.157312 49.498112-49.491968 0-18.317312-9.959424-34.295808-24.748032-42.856448V157.53216h-49.491968V394.921984c-14.790656 8.56064-24.75008 24.539136-24.75008 42.856448 0 27.334656 22.157312 49.491968 49.491968 49.491968zM334.813184 609.28l34.996224-34.998272c-35.930112-35.844096-58.17344-85.405696-58.17344-140.169216 0-54.76352 22.24128-104.331264 58.17344-140.169216l-34.996224-34.998272C289.921024 303.745024 262.144 365.684736 262.144 434.11456c0 68.429824 27.777024 130.367488 72.669184 175.167488z m354.033664 0c44.89216-44.793856 72.669184-106.737664 72.669184-175.16544 0-68.429824-27.777024-130.369536-72.669184-175.169536l-34.996224 34.998272c35.936256 35.844096 58.17344 85.405696 58.17344 140.169216 0 54.76352-22.24128 104.331264-58.17344 140.169216zM404.80768 539.285504l34.998272-34.998272c-18.0224-17.928192-29.179904-42.745856-29.179904-70.17472s11.157504-52.246528 29.179904-70.17472l-34.998272-34.996224c-26.976256 26.888192-43.6736 64.07168-43.6736 105.170944s16.697344 78.288896 43.6736 105.172992z m214.044672 0c26.976256-26.884096 43.6736-64.073728 43.6736-105.172992 0-41.099264-16.697344-78.288896-43.6736-105.170944l-34.998272 34.996224c18.0224 17.928192 29.181952 42.745856 29.181952 70.17472s-11.1616 52.246528-29.181952 70.17472z"  horiz-adv-x="1024" />

    
    <glyph glyph-name="qiche" unicode="&#58905;" d="M512 384m-512 0a512 512 0 1 1 1024 0 512 512 0 1 1-1024 0ZM423.499776 147.331072c-31.371264 12.865536-59.564032 32.186368-83.042304 56.3712-44.521472 45.8752-72.056832 109.2608-72.056832 179.269632 0 69.996544 27.53536 133.380096 72.056832 179.257344 44.88192 46.24384 109.42464 69.363712 173.973504 69.363712 64.538624 0 129.087488-23.12192 173.963264-69.363712 44.521472-45.8752 72.062976-109.2608 72.062976-179.257344 0-70.008832-27.541504-133.392384-72.062976-179.269632-23.47008-24.18688-51.67104-43.503616-83.03616-56.3712a239.828992 239.828992 0 0 0-90.927104-17.872896 239.84128 239.84128 0 0 0-90.9312 17.872896z m90.9312 433.707008c-51.54816 0-103.09632-18.464768-138.93632-55.404544-21.338112-21.981184-37.789696-49.004544-47.538176-79.18592-2.69312-10.1376 0.899072-14.921728 10.760192-14.372864 32.33792 1.28 102.019072 2.299904 116.332544 3.043328-12.294144-14.368768-19.744768-33.230848-19.744768-53.88288 0-22.513664 8.855552-42.903552 23.175168-57.659392a79.323136 79.323136 0 0 1 17.270784-13.484032 77.213696 77.213696 0 0 1 38.682624-10.395648 77.195264 77.195264 0 0 1 38.67648 10.395648 79.450112 79.450112 0 0 1 17.270784 13.484032c14.319616 14.75584 23.175168 35.14368 23.175168 57.659392 0 20.652032-7.456768 39.51616-19.740672 53.88288 14.307328-0.743424 83.990528-1.763328 116.324352-3.043328 9.86112-0.548864 13.45536 4.237312 10.758144 14.372864-9.742336 30.179328-26.195968 57.204736-47.538176 79.18592-35.837952 36.939776-87.382016 55.404544-138.928128 55.404544z m44.396544-154.136576c-22.908928 23.605248-65.8944 23.605248-88.80128 0-11.360256-11.706368-18.39104-27.88352-18.39104-45.748224 0-17.872896 7.030784-34.045952 18.39104-45.756416a63.131648 63.131648 0 0 1 14.901248-11.378688c18.305024-10.05568 40.697856-10.05568 59.00288 0a63.133696 63.133696 0 0 1 14.8992 11.378688c11.364352 11.710464 18.39104 27.88352 18.39104 45.756416 0 17.862656-7.026688 34.041856-18.39104 45.748224h-0.002048z m-32.999424-69.64224c8.589312 4.343808 14.501888 13.453312 14.501888 23.975936 0 11.15136-6.643712 20.70528-16.072704 24.696832a25.382912 25.382912 0 0 1-19.654656 0c-9.43104-3.989504-16.072704-13.545472-16.072704-24.69888 0-10.520576 5.906432-19.63008 14.495744-23.973888a25.479168 25.479168 0 0 1 22.802432 0z m29.37856-172.87168c37.894144 8.239104 71.766016 27.72992 98.152448 54.923264 27.56608 28.40576 46.972928 65.210368 54.31296 106.366976 2.639872 11.1616-2.021376 14.58176-10.186752 14.313472-16.470016 0.360448-32.944128 0.290816-48.644096-2.758656-55.939072-10.866688-75.943936-38.682624-85.843968-102.71744-3.596288-23.259136-5.879808-50.479104-7.790592-70.125568z m-81.559552 0c-1.90464 19.648512-4.196352 46.86848-7.786496 70.127616-9.900032 64.034816-29.908992 91.848704-85.848064 102.71744-15.695872 3.049472-32.17408 3.119104-48.644096 2.758656-8.16128 0.268288-12.826624-3.149824-10.180608-14.31552 7.33184-41.15456 26.742784-77.959168 54.304768-106.364928 26.392576-27.193344 60.260352-46.68416 98.154496-54.921216z"  horiz-adv-x="1024" />

    
    <glyph glyph-name="yuer" unicode="&#58904;" d="M512 384m-512 0a512 512 0 1 1 1024 0 512 512 0 1 1-1024 0ZM511.584256 664.576c6.506496 0 10.981376-1.32096 13.422592-3.964928 2.439168-2.643968 3.864576-5.187584 4.27008-7.626752 0.407552-4.47488 0-7.729152-1.220608-9.762816-1.21856-2.033664-1.21856-5.085184 0-9.152512 0.815104-2.033664 2.136064-4.37248 3.966976-7.016448 1.830912-2.643968 5.390336-4.780032 10.676224-6.406144 5.695488-1.62816 11.89888-4.067328 18.610176-7.3216 6.711296-3.25632 12.914688-8.74496 18.610176-16.474112 1.626112-2.441216 3.151872-5.287936 4.575232-8.542208a61.657088 61.657088 0 0 0 3.356672-9.762816c1.21856-3.659776 2.033664-7.118848 2.439168-10.371072h-157.415424c0.405504 2.84672 1.015808 5.69344 1.830912 8.54016a191.694848 191.694848 0 0 1 2.439168 7.931904c0.813056 2.84672 2.238464 5.89824 4.272128 9.15456 3.254272 5.69344 8.337408 10.981376 15.253504 15.86176 6.914048 4.882432 13.830144 8.339456 20.744192 10.37312 6.914048 2.033664 10.881024 3.762176 11.89888 5.185536 1.015808 1.42336 2.53952 3.356672 4.575232 5.79584 1.626112 2.033664 2.236416 4.780032 1.830912 8.237056a80.01536 80.01536 0 0 1-1.830912 10.067968c-1.220608 5.287936 0.305152 9.152512 4.575232 11.59168 4.272128 2.441216 8.64256 3.661824 13.119488 3.661824z m108.60544-145.823744c0-17.48992-8.74496-26.23488-26.236928-26.23488h-164.739072c-17.48992 0-26.23488 8.74496-26.23488 26.23488 0 8.134656 2.541568 14.4384 7.626752 18.915328 5.083136 4.472832 11.286528 6.711296 18.608128 6.711296h164.739072c8.94976 0 15.558656-2.543616 19.828736-7.626752 4.272128-5.085184 6.406144-11.085824 6.406144-17.999872z m-78.708736-51.861504c12.201984 0 23.693312-0.813056 34.471936-2.441216 10.778624-1.626112 20.135936-4.880384 28.065792-9.762816 7.931904-4.880384 14.237696-11.79648 18.915328-20.744192 4.677632-8.94976 7.016448-20.54144 7.016448-34.777088v-242.837504c0-10.981376-1.118208-19.828736-3.354624-26.54208-2.238464-6.709248-5.695488-11.896832-10.37312-15.556608-4.677632-3.661824-10.473472-6.10304-17.38752-7.3216-6.916096-1.220608-15.0528-1.830912-24.408064-1.830912H517.685248c-9.762816 0-20.135936-0.1024-31.117312-0.305152-10.983424-0.2048-23.185408-0.305152-36.608-0.305152-13.42464 0-23.898112 1.323008-31.422464 3.966976-7.5264 2.64192-13.21984 6.506496-17.084416 11.59168-3.864576 5.085184-6.203392 11.186176-7.016448 18.305024-0.813056 7.1168-1.220608 15.353856-1.220608 24.70912V382.691328c0 13.830144 0.507904 24.303616 1.52576 31.422464 1.015808 7.1168 2.94912 14.135296 5.79584 21.049344 2.84672 7.3216 8.034304 13.017088 15.558656 17.084416 7.524352 4.067328 15.558656 7.2192 24.100864 9.455616 8.54016 2.238464 16.474112 3.661824 23.795712 4.272128 7.3216 0.610304 12.404736 0.915456 15.253504 0.915456h39.65952c2.439168 0 5.48864-0.1024 9.150464-0.3072 3.661824-0.200704 8.136704-0.100352 13.42464 0.3072z m-64.065536-93.96224c0 5.69344-2.033664 10.575872-6.10304 14.6432-4.06528 4.067328-8.947712 6.10304-14.6432 6.10304-5.69344 0-10.573824-2.035712-14.6432-6.10304-4.067328-4.067328-6.100992-8.94976-6.100992-14.6432v-174.49984c0-5.69344 2.033664-10.575872 6.10304-14.6432 4.067328-4.067328 8.94976-6.10304 14.6432-6.10304 5.69344 0 10.575872 2.035712 14.6432 6.10304 4.067328 4.067328 6.100992 8.94976 6.100992 14.6432v174.49984z"  horiz-adv-x="1024" />

    
    <glyph glyph-name="yule" unicode="&#58903;" d="M512 384m-512 0a512 512 0 1 1 1024 0 512 512 0 1 1-1024 0ZM657.883136 222.59712c8.429568-11.761664 21.56544-24.211456 39.254016-24.211456H770.048v-47.93344h-91.537408s-41.162752 10.477568-64.745472 36.079616a233.496576 233.496576 0 0 0-125.22496-36.190208c-129.55648 0-234.58816 105.033728-234.58816 234.590208C253.952 514.48832 358.985728 619.52 488.54016 619.52c129.55648 0 234.590208-105.033728 234.590208-234.58816a233.807872 233.807872 0 0 0-65.247232-162.336768z m-169.342976 240.529408c25.913344 0 46.91968 21.006336 46.91968 46.91968 0 25.911296-21.006336 46.917632-46.91968 46.917632-25.911296 0-46.917632-21.006336-46.917632-46.91968 0-25.911296 21.006336-46.917632 46.91968-46.917632z m0-250.226688c25.913344 0 46.91968 21.004288 46.91968 46.917632 0 25.911296-21.006336 46.917632-46.91968 46.917632-25.911296 0-46.917632-21.006336-46.917632-46.91968 0-25.911296 21.006336-46.915584 46.91968-46.915584z m-125.11232 125.11232c25.911296 0 46.917632 21.006336 46.917632 46.91968 0 25.911296-21.006336 46.917632-46.91968 46.917632-25.911296 0-46.917632-21.006336-46.917632-46.91968 0-25.911296 21.006336-46.917632 46.91968-46.917632z m250.226688 0c25.913344 0 46.91968 21.006336 46.91968 46.91968 0 25.911296-21.006336 46.917632-46.91968 46.917632-25.911296 0-46.917632-21.006336-46.917632-46.91968 0-25.911296 21.006336-46.917632 46.91968-46.917632z"  horiz-adv-x="1024" />

    
    <glyph glyph-name="zhufang" unicode="&#58901;" d="M512 384m-512 0a512 512 0 1 1 1024 0 512 512 0 1 1-1024 0ZM704.342016 200.022016h-18.604032v226.87744c0 12.57472-7.366656 24.035328-18.825216 29.243392l-129.994752 59.230208v56.700928c0 20.463616-16.7424 37.206016-37.206016 37.206016h-148.822016c-20.461568 0-37.203968-16.7424-37.203968-37.206016v-372.051968h-18.604032c-10.268672 0-18.601984-8.409088-18.601984-18.604032 0-10.268672 8.409088-18.601984 18.601984-18.601984h192.79872c2.752512-0.743424 5.654528-1.11616 8.556544-1.11616h155.295744c2.975744 0 5.87776 0.372736 8.556544 1.11616h44.05248c10.268672 0 18.601984 8.409088 18.601984 18.601984 0 10.194944-8.33536 18.604032-18.601984 18.604032z m-353.452032 299.13088c0 10.268672 8.409088 18.601984 18.604032 18.601984h98.592768a31.08864 31.08864 0 0 1-5.5808-16.816128v-20.389888h-93.011968c-10.268672 0-18.604032 8.409088-18.604032 18.604032z m0-81.852416c0 10.268672 8.409088 18.601984 18.604032 18.601984h93.011968v-37.203968h-93.011968c-10.268672 0-18.604032 8.40704-18.604032 18.601984z"  horiz-adv-x="1024" />

    
    <glyph glyph-name="yanjiu" unicode="&#58900;" d="M512 384m-512 0a512 512 0 1 1 1024 0 512 512 0 1 1-1024 0ZM415.363072 531.84512c35.584-10.620928 59.971584-43.343872 59.977728-80.480256v-66.23232h-167.91552v66.23232c0.008192 37.13024 24.39168 69.84704 59.96544 80.467968v57.550848h47.962112v-57.540608h0.01024z m0 69.554176H367.39072v9.895936a14.135296 14.135296 0 0 0 14.135296 14.133248h19.70176a14.135296 14.135296 0 0 0 14.135296-14.1312v-9.897984zM475.3408 361.10336v-188.002304c0-15.611904-12.65664-28.266496-28.268544-28.266496h-111.378432a28.268544 28.268544 0 0 0-28.278784 28.266496V361.10336H475.3408z m197.158912-12.015616h-191.911936v31.80544a28.268544 28.268544 0 0 0 28.278784 28.268544h135.35232a28.268544 28.268544 0 0 0 28.280832-28.266496v-31.80544z m0-24.029184v-151.957504a28.268544 28.268544 0 0 0-28.278784-28.266496h-135.35232c-15.613952 0-28.268544 12.65664-28.268544 28.266496V325.05856h191.8976z m-48.119808-73.248768a11.9808 11.9808 0 0 1-16.963584 0l-50.997248-51.007488a11.993088 11.993088 0 0 1 16.963584-16.953344l51.007488 50.999296a11.9808 11.9808 0 0 1 0 16.961536h-0.01024z m33.970176 8.51968a12.015616 12.015616 0 0 1-16.986112-16.984064l12.736512 12.736512a12.015616 12.015616 0 0 1 16.984064 16.984064l-12.734464-12.736512z m-12.726272 12.726272a12.015616 12.015616 0 0 1-16.984064-16.996352l12.736512 12.736512a12.015616 12.015616 0 0 1 16.984064 16.994304l-12.736512-12.734464z m-12.713984 12.724224a12.017664 12.017664 0 1 1-16.994304-16.996352l12.734464 12.73856a12.017664 12.017664 0 0 1 16.996352 16.994304l-12.736512-12.736512z"  horiz-adv-x="1024" />

    
    <glyph glyph-name="wenjiao" unicode="&#58899;" d="M512 384m-512 0a512 512 0 1 1 1024 0 512 512 0 1 1-1024 0ZM500.547584 223.082496c-18.548736 0-37.09952 2.400256-55.349248 7.24992-58.251264 15.34976-106.5984 53.80096-134.250496 106.19904-2.850816 5.351424-0.499712 11.95008 5.09952 14.450688l0.151552 0.049152c5.199872 2.351104 11.350016 0.200704 13.99808-4.798464 24.850432-47.050752 68.3008-81.55136 120.600576-95.350784 16.601088-4.349952 33.251328-6.4512 49.649664-6.4512 84.750336 0 162.54976 55.801856 185.501696 140.150784 20.44928 75.10016-7.800832 154.349568-70.4512 200.450048-4.599808 3.39968-5.748736 9.699328-2.54976 14.399488l0.100352 0.151552c3.448832 5.04832 10.448896 6.199296 15.40096 2.54976a211.243008 211.243008 0 0 0 39.098368-37.351424c13.59872-16.848896 24.500224-35.549184 32.350208-55.648256 16.349184-41.750528 18.74944-86.700032 6.950912-130.050048a207.546368 207.546368 0 0 0-37.750784-74.850304c-16.9984-21.450752-37.750784-39.24992-61.800448-52.95104a215.248896 215.248896 0 0 0-77.449216-26.249216c-9.74848-1.30048-19.501056-1.949696-29.300736-1.949696zM485.208064 231.452672l24.997888 0.417792 0.90112-53.94432-24.997888-0.417792zM430.39744 175.03232c0 7.350272 6.049792 13.299712 13.500416 13.299712l109.101056 0.049152c7.448576 0 13.498368-5.94944 13.549568-13.299712 0-7.350272-6.049792-13.299712-13.500416-13.299712l-109.101056-0.049152c-7.499776 0-13.549568 5.94944-13.549568 13.299712zM673.697792 435.482624c0-66.650112-38.600704-124.399616-94.949376-152.850432-23.750656-11.95008-50.700288-18.74944-79.249408-18.74944-71.200768 0-132.450304 42.098688-159.451136 102.4-9.500672 21.149696-14.749696 44.550144-14.749696 69.148672 0 76.050432 50.200576 140.500992 119.750656 163.00032a176.55808 176.55808 0 0 0 54.450176 8.5504c90.84928 0 165.449728-68.499456 173.498368-155.951104 0.45056-5.04832 0.700416-10.248192 0.700416-15.548416zM563.99872 491.282432c-9.00096-9.00096-20.250624-8.251392-20.250624-8.251392s-30.75072 0.751616-36.749312-16.498688c-4.501504-10.500096-21.74976-31.049728-21.74976-31.049728s-22.501376-4.200448-29.251584-6.4512c-6.750208-2.248704-3.74784-29.999104-3.74784-29.999104l-28.502016-10.500096-4.450304-12.550144v-7.350272l-7.350272-3.00032-4.99712 7.35232-4.651008 29.34784-5.351424 23.650304-11.649024 5.650432s-7.651328 8.998912-7.000064-12.00128c0.649216-20.998144-5.349376-37.349376-19.349504-29.8496-14.000128 7.499776-17.000448-7.499776-16.500736-14.000128 0.200704-2.449408-0.84992-5.94944-2.449408-9.449472-9.500672 21.149696-14.751744 44.550144-14.751744 69.15072 0 76.048384 50.200576 140.498944 119.750656 163.00032 7.600128-4.450304 14.649344-10.000384 13.950976-15.0016-1.501184-4.499456 4.499456-53.248 81.750016-83.99872 0.049152 0.049152 32.299008 0.79872 23.300096-8.200192z m109.699072-55.799808c0-66.650112-38.600704-124.399616-94.949376-152.850432-0.651264 1.998848-1.24928 4.599808-1.24928 9.150464 0 14.249984-6.750208 21.000192-11.900928 27.7504-5.15072 6.74816-57.100288-27.7504-57.100288-27.7504s-8.249344-12.750848-29.999104 8.249344c-21.74976 21.000192 5.249024 14.999552 5.249024 14.999552s15.74912 1.501184 21.000192 9.750528c5.249024 8.249344 11.249664 24.75008 13.500416 35.250176 2.248704 10.500096 17.999872 16.500736 26.249216 18.74944 8.249344 2.250752 16.500736 0.749568 12.00128 11.249664-4.501504 10.500096-15.74912 2.250752-30.001152 24.00256-14.249984 21.74976 18.00192 20.248576 18.00192 8.247296 0-11.999232 27.748352-13.498368 40.4992-18.74944 12.7488-5.249024 39.749632 31.9488 39.749632 31.9488l48.25088 15.650816c0.448512-5.148672 0.698368-10.348544 0.698368-15.648768z"  horiz-adv-x="1024" />

    
    <glyph glyph-name="gouwu" unicode="&#58898;" d="M512 384m-512 0a512 512 0 1 1 1024 0 512 512 0 1 1-1024 0ZM689.373184 501.086208c-0.55296 5.16096-4.79232 9.03168-9.76896 9.03168h-62.91456c0 58.0608-47.245312 105.306112-105.365504 105.306112-58.12224 0-105.306112-47.24736-105.367552-105.306112h-61.560832c-4.97664 0-9.216-3.87072-9.76896-9.03168l-37.60128-333.242368c-0.67584-6.08256 3.87072-11.3664 9.76896-11.3664h410.411008c5.89824 0 10.4448 5.34528 9.76896 11.3664l-37.60128 333.242368zM449.3312 436.453376c0-5.46816-4.42368-9.89184-9.89184-9.89184h-23.47008c-5.46816 0-9.89184 4.42368-9.89184 9.89184v23.47008c0 5.46816 4.42368 9.89184 9.89184 9.89184h23.47008c5.46816 0 9.89184-4.42368 9.89184-9.89184v-23.47008z m0 73.66656c0 34.220032 27.83232 62.052352 62.052352 62.052352 34.22208 0 62.0544-27.83232 62.0544-62.0544h-124.1088z m167.419904-73.78944c0-5.40672-4.36224-9.76896-9.76896-9.76896h-23.71584c-5.40672 0-9.76896 4.36224-9.76896 9.76896v23.71584c0 5.40672 4.36224 9.76896 9.76896 9.76896h23.71584c5.40672 0 9.76896-4.36224 9.76896-9.76896v-23.71584z"  horiz-adv-x="1024" />

    
    <glyph glyph-name="jiaotong" unicode="&#58897;" d="M512 384m-512 0a512 512 0 1 1 1024 0 512 512 0 1 1-1024 0ZM727.04 203.962368l-11.945984 345.280512C715.094016 580.139008 688.349184 605.184 655.36 605.184H368.64c-32.989184 0-59.731968-25.044992-59.731968-55.94112L296.96 203.962368h41.404416c-0.301056-1.57696-0.49152-3.198976-0.49152-4.866048v-11.354112c0-14.333952 11.620352-25.952256 25.954304-25.952256h37.306368c14.336 0 25.954304 11.618304 25.954304 25.952256v11.354112c0 1.667072-0.190464 3.28704-0.49152 4.866048h170.807296c-0.301056-1.57696-0.49152-3.198976-0.49152-4.866048v-11.354112c0-14.333952 11.620352-25.952256 25.954304-25.952256h37.308416c14.333952 0 25.954304 11.618304 25.954304 25.952256v11.354112c0 1.667072-0.190464 3.28704-0.49152 4.866048H727.04zM370.673664 258.06848c-18.11456 0-32.800768 14.68416-32.800768 32.800768 0 18.116608 14.686208 32.802816 32.800768 32.802816 18.116608 0 32.802816-14.686208 32.802816-32.802816 0-18.11456-14.68416-32.800768-32.802816-32.800768z m-23.230464 119.07072l4.44416 141.748224c0 31.26272 11.38688 43.628544 40.165376 43.628544H631.78752c28.778496 0 40.163328-12.365824 40.163328-43.628544l4.603904-141.746176h-329.1136z m305.883136-119.07072c-18.116608 0-32.802816 14.68416-32.802816 32.800768 0 18.116608 14.686208 32.802816 32.802816 32.802816 18.11456 0 32.800768-14.686208 32.800768-32.802816 0-18.11456-14.68416-32.800768-32.800768-32.800768z"  horiz-adv-x="1024" />

    
    <glyph glyph-name="canyin" unicode="&#58896;" d="M512 384m-512 0a512 512 0 1 1 1024 0 512 512 0 1 1-1024 0ZM488.329216 455.849984h-46.761984V619.52h-46.764032v-163.670016h-46.761984V619.52h-46.761984v-163.670016c0-49.567744 38.811648-89.78432 87.678976-92.823552v-211.132416h58.454016V363.026432c48.86528 3.039232 87.678976 43.255808 87.678976 92.823552V619.52h-46.761984v-163.670016z m116.905984 70.144V338.944h58.454016v-187.049984h58.454016V619.52c-64.53248 0-116.908032-52.373504-116.908032-93.526016z"  horiz-adv-x="1024" />

    
    <glyph glyph-name="dengdai" unicode="&#58887;" d="M755.0464 33.27999999999997a34.7648 34.7648 0 0 0-12.8512-48.0256 34.6624 34.6624 0 0 0-47.7696 12.8512 34.7648 34.7648 0 0 0 12.288 48.0256 35.4816 35.4816 0 0 0 48.3328-12.8z m-207.3088-74.9056c0-19.1488-15.8208-35.1744-35.6864-35.1744a35.2768 35.2768 0 0 0-35.1744 35.1744v24.6272a35.4816 35.4816 0 0 0 70.8608 0v-24.6272z m-216.9856 39.7312a35.072 35.072 0 0 0-48.3328-13.0048 34.8672 34.8672 0 0 0-13.0048 48.2816l26.112 45.7728a36.1472 36.1472 0 0 0 48.7936 13.056 35.328 35.328 0 0 0 12.5952-48.3328l-26.1632-45.7728zM162.304 140.288a35.5328 35.5328 0 0 0-48.3328 13.056 35.1744 35.1744 0 0 0 12.5952 48.2816l70.3488 40.7552a35.584 35.584 0 0 0 48.2816-13.0048 35.84 35.84 0 0 0-13.056-48.3328l-69.888-40.7552zM87.3984 348.15999999999997a35.1232 35.1232 0 0 0-35.1744 35.1744c0 19.6096 15.5648 35.4304 35.1744 35.4304h109.568c19.5584 0 35.1232-15.872 35.1232-35.1744a35.1744 35.1744 0 0 0-35.1744-35.4304h-109.568z m39.2192 217.3952a34.4576 34.4576 0 0 0-12.5952 48.0256 35.0208 35.0208 0 0 0 48.2816 13.0048l119.0912-69.12a35.2256 35.2256 0 0 0 13.056-47.7696 35.4816 35.4816 0 0 0-48.2304-13.056L126.6688 565.5552z m142.7456 168.3456l82.944-143.9744a35.2256 35.2256 0 1 1 61.0816 35.4304L330.0352 769.024a35.1232 35.1232 0 0 1-60.7232-35.1744z m207.5648 74.3936a35.84 35.84 0 0 0 35.1744 35.4304c19.6096 0 35.6864-15.9232 35.6864-35.4304v-165.888a35.84 35.84 0 0 0-35.6864-35.6864 35.328 35.328 0 0 0-35.1744 35.7376V808.2944z m217.0368-39.2192a35.4304 35.4304 0 0 0 48.2816 13.056 34.816 34.816 0 0 0 13.056-48.3328L672.2048 589.8240000000001a35.4304 35.4304 0 0 0-48.2816-13.056 35.9424 35.9424 0 0 0-12.8512 48.5888l82.944 143.7184z m168.8576-142.4896l-144.128-83.0976a35.4816 35.4816 0 0 1-13.056-48.2816 36.2496 36.2496 0 0 1 48.2816-12.8512l144.2816 83.0976a34.9184 34.9184 0 0 1 12.5952 48.0256 34.6624 34.6624 0 0 1-47.9744 13.1072z m74.1376-207.872c19.7632 0 35.4304-15.7696 35.1744-35.3792a34.9184 34.9184 0 0 0-35.1744-35.1744h-166.0416a35.5328 35.5328 0 0 0-35.2256 35.4304c0 19.3536 16.0768 35.1744 35.2256 35.1744h166.0416z"  horiz-adv-x="1024" />

    
    <glyph glyph-name="Serviceusers" unicode="&#58885;" d="M100.218036 100.03998000000001l262.909977 142.960987v8.369c-112.27799 85.775992-127.619989 240.592979-127.619989 364.724968A251.053978 251.053978 0 0 0 506.786 895.04291h9.065A251.749978 251.749978 0 0 0 787.129976 616.0949350000001c0-126.921989-15.341999-278.948975-127.619989-367.514968v-8.367999L921.721964 97.24998000000005a69.736994 69.736994 0 0 0 36.960997-62.065994v-93.447992A69.736994 69.736994 0 0 0 888.944967-128h-755.949934a69.736994 69.736994 0 0 0-69.736994 69.736994v96.236991a69.736994 69.736994 0 0 0 36.959997 62.065995z m216.882981 521.633954c0-120.644989 12.551999-252.448978 109.486991-313.816972a43.236996 43.236996 0 0 0 18.828998-35.565997v-69.736994c0-14.644999-11.854999-28.591997-36.959997-41.841996a1457.504872 1457.504872 0 0 1-255.237977-135.987988v-73.920994h714.804937v76.012993A1711.34785 1711.34785 0 0 1 614.179991 162.80397400000004q-37.657997 20.222998-37.657997 41.841997v69.736994a42.539996 42.539996 0 0 0 19.525999 35.565997c94.842992 59.275995 109.48699 191.079983 109.48699 311.724972A170.158985 170.158985 0 0 1 515.851 815.542917h-9.065c-126.224989 0-189.684983-65.552994-189.684983-193.869983z"  horiz-adv-x="1024" />

    
    <glyph glyph-name="forgetpassword" unicode="&#58886;" d="M520.93654699 349.87684067c-38.42290119 0-69.56197205-31.13557789-69.56197206-69.55731512 0-27.68344291 16.31410176-51.39780494 39.75019748-62.58085888l0-76.50699264c0-16.45032448 13.3614501-29.81177458 29.81177458-29.81177458 16.44566755 0 29.81177458 13.36261405 29.81177458 29.81177458l0 76.50699264c23.43609458 11.18771086 39.74554055 34.89741597 39.74554054 62.58085888C590.49386211 318.74126278999995 559.35828309 349.87684067 520.93654699 349.87684067L520.93654699 349.87684067zM809.0809435 488.96934912L212.94790542 488.96934912c-32.92742883 0-59.62471424-26.66352071-59.62471424-59.59211349l0-397.42513038c0-32.92742883 26.69728541-59.62005731 59.62471424-59.62005732l596.13303808 0c32.89599203 0 59.59327744 26.69262848 59.59327744 59.62005732L868.67422094 429.37723563C868.67422094 462.30466333 841.97693554 488.96934912 809.0809435 488.96934912L809.0809435 488.96934912zM809.0809435 71.70113762999995c0-32.92742883-6.81694777-39.75019747-39.75019747-39.75019747L252.66084523 31.95094015999996c-32.92742883 0-39.71293981 6.82160469-39.71293981 39.75019747L212.94790542 389.62587421c0 32.92742883 6.78551211 39.75136142 39.71293981 39.75136142l516.6699008 0c32.92742883 0 39.75019747-6.82276864 39.75019747-39.75136142L809.0809435 71.70113762999995 809.0809435 71.70113762999995zM229.32953657 518.96275399c16.55045461 0 30.00854073 13.18913479 30.46261532 29.63014428l0.06403641-0.00465692c26.93829518 113.87969877 129.02601387 198.71256462 251.14193579 198.71256462 95.45356515 0 178.54231779-51.94735275 223.19885426-128.98177024 4.64786546-10.51940637 15.1626149-17.86028601 27.40168362-17.860286 16.54113963 0 29.94916125 13.40802162 29.94916125 29.94916124 0 6.45368718-2.04683037 12.42535709-5.51643023 17.31423118-54.94424803 95.04955506-157.3393408 159.20337693-275.03327004 159.20337692-153.79173376 0-281.86418973-105.53636067-311.35345436-250.53650261-0.14087965-0.60077625-0.25963747-1.2015525-0.36326059-1.81513557-0.14553657-0.72302706-0.30038813-1.44139719-0.43661085-2.16908118l0.14087965-0.00931384c-0.09081515-0.96869376-0.14087965-1.95252224-0.14087965-2.9468308C198.84130645 532.61294933 212.48800882 518.96275399 229.32953657 518.96275399L229.32953657 518.96275399zM229.32953657 518.96275399"  horiz-adv-x="1024" />

    
    <glyph glyph-name="Ioniconsiosradiobuttonon" unicode="&#61029;" d="M512 744c96.2 0 186.6-37.4 254.6-105.4S872 480.2 872 384s-37.4-186.6-105.4-254.6S608.2 24 512 24c-96.2 0-186.6 37.4-254.6 105.4S152 287.8 152 384s37.4 186.6 105.4 254.6S415.8 744 512 744m0 56C282.2 800 96 613.8 96 384s186.2-416 416-416 416 186.2 416 416S741.8 800 512 800zM727 599C669.6 656.4 593.2 688 512 688c-81.2 0-157.6-31.6-215-89C239.6 541.6 208 465.2 208 384s31.6-157.6 89-215C354.4 111.6 430.8 80 512 80c81.2 0 157.6 31.6 215 89C784.4 226.4 816 302.8 816 384s-31.6 157.6-89 215z"  horiz-adv-x="1024" />

    
    <glyph glyph-name="Ioniconsmdradiobuttonoff" unicode="&#61133;" d="M512 800C283.202 800 96 612.798 96 384s187.202-416 416-416 416 187.202 416 416S740.798 800 512 800z m0-748.798c-183.036 0-332.798 149.764-332.798 332.798S328.964 716.8 512 716.8 844.8 567.036 844.8 384 695.036 51.202 512 51.202z"  horiz-adv-x="1024" />

    
    <glyph glyph-name="down1" unicode="&#58892;" d="M537.6 201.6l316.8 316.8c12.8 12.8 12.8 32 0 44.8s-32 12.8-44.8 0L512 268.8 217.6 563.2c-12.8 12.8-32 12.8-44.8 0s-12.8-32 0-44.8l316.8-316.8c6.4-6.4 16-9.6 25.6-9.6 6.4 0 12.8 3.2 22.4 9.6z"  horiz-adv-x="1024" />

    
    <glyph glyph-name="filter" unicode="&#58957;" d="M979.2 857.6C966.4 883.2 934.4 896 902.4 896L121.6 896c-32 0-64-12.8-76.8-38.4C32 832 32 800 51.2 774.4 51.2 768 57.6 768 57.6 768l275.2-224 0-332.8c0-12.8 6.4-25.6 12.8-32l108.8-83.2c19.2-12.8 38.4-6.4 51.2 6.4 12.8 19.2 6.4 38.4-6.4 51.2l-96 70.4L403.2 556.8c0 12.8-6.4 19.2-12.8 25.6L102.4 819.2l819.2 0L633.6 582.4C627.2 576 620.8 563.2 620.8 556.8l0-646.4c0-19.2 19.2-38.4 38.4-38.4s38.4 19.2 38.4 38.4L697.6 537.6 966.4 768c0 0 6.4 6.4 6.4 6.4C992 800 992 832 979.2 857.6z"  horiz-adv-x="1024" />

    
    <glyph glyph-name="up" unicode="&#58924;" d="M492.088889 564.906667L170.666667 243.484444a28.444444 28.444444 0 1 1 40.391111-40.391111L512 504.604444l301.511111-301.511111a28.444444 28.444444 0 0 1 40.391111 40.391111L531.911111 564.906667a28.444444 28.444444 0 0 1-39.822222 0z"  horiz-adv-x="1024" />

    
    <glyph glyph-name="right-copy" unicode="&#58882;" d="M262.944 404.128c-0.512-0.992-1.344-1.82399999-1.792-2.848-8.8-18.304-5.92-40.70400001 9.664-55.424L624.064 11.744000000000028c19.264-18.208 49.632-17.344 67.872 1.88800001 18.208 19.264 17.376 49.63199999-1.888 67.87199999l-316.96 299.84L688.8 685.6320000000001c19.072 18.39999999 19.648 48.768 1.248 67.872-9.408 9.792-21.984 14.688-34.56 14.688-11.99999999 0-24-4.48-33.312-13.44l-350.048-337.376c-0.672-0.672-0.928-1.6-1.6-2.304-0.512-0.48-1.056-0.832-1.568-1.344-2.72-2.848-4.16-6.33600001-6.016-9.6z"  horiz-adv-x="1024" />

    
    <glyph glyph-name="renminbi" unicode="&#58890;" d="M754.474014 716.119778L576.427989 413.215788h140.292951v-66.923859h-163.460025v-92.230425h163.460025v-67.77406h-163.460025v-134.28924h-84.088439V186.287444H299.707525v67.77406h169.464951v92.230425H299.707525v66.923859h144.598691L267.959377 716.119778h94.807787c82.388036-150.455228 132.413688-245.849277 150.162098-286.179715h1.728377c6.004927 16.577102 22.465263 50.054843 49.351816 100.401602l100.811498 185.778113h89.653061z"  horiz-adv-x="1024" />

    
    <glyph glyph-name="huishan" unicode="&#59211;" d="M960 759.5008H288.0512L0 384l288.0512-375.5008h672.0512c35.328 0 64 28.0576 64 62.5664V696.9344c-0.1024 34.5088-28.7744 62.5664-64.1024 62.5664z m15.9744-688.4352c0-8.6016-7.168-15.6672-15.9744-15.6672H312.0128L60.0064 384l252.0064 328.4992h647.9872c8.8064 0 15.9744-7.0656 15.9744-15.6672v-625.7664zM649.9328 384l142.9504 139.776c9.4208 9.216 9.4208 24.064 0 33.1776-9.4208 9.216-24.576 9.216-33.8944 0L616.0384 417.1776 472.9856 557.056c-9.4208 9.216-24.576 9.216-33.8944 0-9.4208-9.216-9.4208-24.064 0-33.1776l142.9504-139.776-143.0528-139.8784c-9.4208-9.216-9.4208-24.064 0-33.1776 4.7104-4.608 10.752-6.8608 16.9984-6.8608 6.2464 0 12.288 2.2528 16.9984 6.8608l142.9504 139.776 143.0528-139.776c4.7104-4.608 10.752-6.8608 16.9984-6.8608 6.2464 0 12.288 2.2528 16.9984 6.8608 9.4208 9.216 9.4208 24.064 0 33.1776L649.9328 384z"  horiz-adv-x="1024" />

    
    <glyph glyph-name="-calendardatedayeventiconotekanotes" unicode="&#59032;" d="M768 682.666667V768a42.666667 42.666667 0 0 1-85.333333 0v-85.333333H341.333333V768a42.666667 42.666667 0 0 1-85.333333 0v-85.333333H85.333333v-682.666667h853.333334V682.666667z m85.333333-597.333334H170.666667V597.333333h682.666666z m-170.666666 384H341.333333v-85.333333h341.333334z m-128-170.666666H341.333333v-85.333334h213.333334z"  horiz-adv-x="1024" />

    
    <glyph glyph-name="x" unicode="&#59519;" d="M571.733333 384l226.133334 226.133333c17.066667 17.066667 17.066667 42.666667 0 59.733334s-42.666667 17.066667-59.733334 0L512 443.733333 285.866667 669.866667c-17.066667 17.066667-42.666667 17.066667-59.733334 0s-17.066667-42.666667 0-59.733334l226.133334-226.133333-226.133334-226.133333c-17.066667-17.066667-17.066667-42.666667 0-59.733334 8.533333-8.533333 17.066667-12.8 29.866667-12.8s21.333333 4.266667 29.866667 12.8l226.133333 226.133334 226.133333-226.133334c8.533333-8.533333 21.333333-12.8 29.866667-12.8s21.333333 4.266667 29.866667 12.8c17.066667 17.066667 17.066667 42.666667 0 59.733334L571.733333 384z"  horiz-adv-x="1024" />

    
    <glyph glyph-name="rigth" unicode="&#58884;" d="M318.16418-35.747748a34.460829 34.460829 0 0 0-24.308468 9.963243 33.792 33.792 0 0 0 0 48.137226l362.496 358.810522-362.500613 358.810523a33.792 33.792 0 0 0 0 48.128c13.431928 13.29355 35.198847 13.29355 48.626162 0l386.813694-382.874523a33.792 33.792 0 0 0 0-48.128l-386.813694-382.879135a34.456216 34.456216 0 0 0-24.308468-9.967856z"  horiz-adv-x="1024" />

    
    <glyph glyph-name="fork" unicode="&#59122;" d="M540.4 514.2C540.4 514 540.2 514 540.4 514.2l0-0.2L540.4 514.2zM640 480c0 86.4-30 186.4-48 267.4L592 748l-16 0-0.4-233.8c0-12.2-5.8-22.2-18-22.2-11.4 0-16 8.6-17.2 19.8-0.2 0.8 0 1.6 0 2.4L519.8 748l-16 0-18-234-0.2-2.2c-1.2-11.2-7.4-19.8-19-19.8-12.2 0-18.2 10-18.2 22.2L447.6 748l-16 0C414 666 384 566.2 384 479.8c0-51.4 29.2-96.2 73.4-116.4 22.4-10.2 22.6-20.6 22.6-20.6s-32-403.4-32-426.2c0-22.8 8-37 19-48s28.4-16.4 44.8-16.4c0.2 0 0.2 0 0.4 0 0.2 0 0.2 0 0.4 0 16.4 0 33.6 5.4 44.8 16.4 11 11 18.6 21.8 18.6 48 0 26.2-32 426.2-32 426.2s-2 10 22.8 21.2C610 383.6 640 428.4 640 480z"  horiz-adv-x="1024" />

    
    <glyph glyph-name="tubiao-" unicode="&#58893;" d="M607.52 409.11c56.66-26.15 136.27-7.73 195.15 50.83 70.73 70.35 84.43 171.26 29.99 225.4-54.06 53.77-155.53 40.51-226.63-29.83-58.88-58.56-77.39-137.75-51.1-194.1L193.52 101.94l52.21-51.93 255.14 253.03 254.77-253.4 52.21 51.93-254.77 253.4 54.44 54.14z m-251.07-66.67l104.8 104.23L201.3 704.86c-57.77-57.46-57.77-150.64 0-208.46l155.15-153.96z"  horiz-adv-x="1024" />

    
    <glyph glyph-name="icon_shezhi" unicode="&#58929;" d="M512 384m-512 0a512 512 0 1 1 1024 0 512 512 0 1 1-1024 0ZM802.377143 406.418286c-2.304 12.763429-14.555429 25.782857-27.318857 28.598857l-9.508572 2.194286a94.866286 94.866286 0 0 0-54.857143 43.483428 95.305143 95.305143 0 0 0-10.130285 69.778286l3.035428 8.96c3.803429 12.434286-1.170286 29.549714-11.154285 38.070857 0 0-8.96 7.606857-34.157715 22.162286-25.234286 14.518857-36.096 18.541714-36.096 18.541714-12.251429 4.498286-29.44 0.219429-38.4-9.325714l-6.656-7.131429a93.769143 93.769143 0 0 0-65.024-25.856c-25.234286 0-48.274286 9.874286-65.243428 26.075429l-6.436572 6.912c-8.850286 9.508571-26.112 13.750857-38.4 9.325714 0 0-11.008-4.022857-36.278857-18.541714-25.234286-14.701714-34.084571-22.308571-34.084571-22.308572-9.984-8.374857-14.921143-25.380571-11.117715-37.924571l2.742858-9.033143c5.376-22.930286 2.56-47.762286-10.093715-69.705143-12.653714-21.942857-32.694857-36.937143-55.222857-43.593143l-9.142857-2.084571c-12.580571-2.889143-24.978286-15.762286-27.318857-28.598857 0 0-2.084571-11.483429-2.084572-40.704 0-29.184 2.084571-40.667429 2.084572-40.667429 2.267429-12.873143 14.518857-25.782857 27.318857-28.598857l8.96-2.084571a94.061714 94.061714 0 0 0 55.259429-43.702858c12.580571-21.942857 15.616-46.957714 10.130285-69.778285l-2.633143-8.850286c-3.803429-12.434286 1.133714-29.549714 11.117715-38.070857 0 0 8.996571-7.606857 34.157714-22.162286 25.234286-14.555429 36.096-18.541714 36.096-18.541714 12.251429-4.498286 29.476571-0.182857 38.436571 9.325714l6.326858 6.802286a94.646857 94.646857 0 0 0 130.706285-0.073143l6.290286-6.802286c8.850286-9.508571 26.148571-13.750857 38.436571-9.325714 0 0 10.971429 4.022857 36.242286 18.541714 25.234286 14.555429 34.084571 22.162286 34.084572 22.162286 9.984 8.411429 14.957714 25.526857 11.117714 38.034286l-2.742857 9.216a94.683429 94.683429 0 0 0 10.130285 69.449143c12.580571 21.942857 32.804571 37.010286 55.222858 43.702857l8.996571 2.084571c12.580571 2.925714 24.978286 15.798857 27.318857 28.598857 0 0 2.084571 11.483429 2.084572 40.704-0.146286 29.184-2.194286 40.740571-2.194286 40.740572z m-290.267429-157.622857c-64.365714 0-116.662857 52.297143-116.662857 116.955428a116.699429 116.699429 0 0 0 116.662857 116.809143c64.365714 0 116.662857-52.297143 116.662857-116.955429a116.882286 116.882286 0 0 0-116.662857-116.809142z"  horiz-adv-x="1024" />

    
    <glyph glyph-name="icon_bianji" unicode="&#58931;" d="M512 384m-512 0a512 512 0 1 1 1024 0 512 512 0 1 1-1024 0ZM409.234286 165.12l-127.378286-21.723429a20.845714 20.845714 0 0 0-24.027429 24.064l21.686858 127.378286c0.694857 4.022857 2.596571 7.68 5.485714 10.569143l226.925714 226.962286c7.68 7.68 20.077714 7.68 27.721143 0l107.117714-107.154286c7.68-7.643429 7.68-20.041143 0-27.684571l-226.962285-226.962286a19.602286 19.602286 0 0 0-10.569143-5.449143z m246.564571 451.620571l74.934857-74.971428a42.642286 42.642286 0 0 0 0-60.269714l-28.745143-28.745143c-7.68-7.68-20.114286-7.68-27.794285 0l-107.446857 107.446857a19.638857 19.638857 0 0 0 0 27.794286l28.745142 28.745142a42.642286 42.642286 0 0 0 60.306286 0zM258.267429 162.742857h6.473142v-17.590857h-6.436571v17.554286z"  horiz-adv-x="1024" />

    
    <glyph glyph-name="caiwufeiyongbaozhang" unicode="&#58990;" d="M512 384m-512 0a512 512 0 1 1 1024 0 512 512 0 1 1-1024 0ZM698.181818 546.909091a23.272727 23.272727 0 0 0 23.272727-23.272727v-256a69.818182 69.818182 0 0 0-69.818181-69.818182H349.090909a69.818182 69.818182 0 0 0-69.818182 69.818182V523.636364a23.272727 23.272727 0 0 0 23.272728 23.272727h395.636363z m-261.026909-71.889455a11.636364 11.636364 0 0 1-14.848-17.803636L472.273455 407.272727H430.545455l-2.094546-0.186182a11.636364 11.636364 0 0 1 2.094546-23.086545H488.727273v-23.272727h-58.181818l-2.094546-0.186182a11.636364 11.636364 0 0 1 2.094546-23.086546H488.727273v-58.181818l0.186182-2.094545A11.636364 11.636364 0 0 1 512 279.272727V337.454545h58.181818l2.094546 0.186182A11.636364 11.636364 0 0 1 570.181818 360.727273H512v23.272727h58.181818l2.094546 0.186182A11.636364 11.636364 0 0 1 570.181818 407.272727h-41.751273l49.989819 49.943273 1.326545 1.629091a11.636364 11.636364 0 0 1-1.326545 14.848l-1.629091 1.326545a11.636364 11.636364 0 0 1-14.848-1.326545L500.363636 412.090182l-61.579636 61.602909zM325.818182 616.727273m23.272727 0l302.545455 0q23.272727 0 23.272727-23.272728l0 0q0-23.272727-23.272727-23.272727l-302.545455 0q-23.272727 0-23.272727 23.272727l0 0q0 23.272727 23.272727 23.272728Z"  horiz-adv-x="1024" />

    
    <glyph glyph-name="danjulishi" unicode="&#58991;" d="M512 384m-512 0a512 512 0 1 1 1024 0 512 512 0 1 1-1024 0ZM674.909091 570.181818a23.272727 23.272727 0 0 0 23.272727-23.272727v-325.818182a69.818182 69.818182 0 0 0-69.818182-69.818182h-186.181818a69.818182 69.818182 0 0 0-69.818182 69.818182V546.909091a23.272727 23.272727 0 0 0 23.272728 23.272727h279.272727z m-128-209.454545h-116.363636a11.636364 11.636364 0 1 1 0-23.272728h116.363636a11.636364 11.636364 0 1 1 0 23.272728z m93.090909 69.818182h-209.454545a11.636364 11.636364 0 0 1 0-23.272728h209.454545a11.636364 11.636364 0 1 1 0 23.272728z m0 69.818181h-209.454545a11.636364 11.636364 0 0 1 0-23.272727h209.454545a11.636364 11.636364 0 1 1 0 23.272727zM605.090909 640a23.272727 23.272727 0 0 0 23.272727-23.272727v-23.272728H372.363636a23.272727 23.272727 0 0 1-23.109818-20.549818L349.090909 570.181818v-345.134545A69.841455 69.841455 0 0 0 302.545455 290.909091V616.727273a23.272727 23.272727 0 0 0 23.272727 23.272727h279.272727z"  horiz-adv-x="1024" />

    
    <glyph glyph-name="caigouhetongjiliang" unicode="&#58992;" d="M512 384m-512 0a512 512 0 1 1 1024 0 512 512 0 1 1-1024 0ZM674.909091 616.727273a23.272727 23.272727 0 0 0 23.272727-23.272728v-372.363636a69.818182 69.818182 0 0 0-69.818182-69.818182H395.636364a69.818182 69.818182 0 0 0-69.818182 69.818182V593.454545a23.272727 23.272727 0 0 0 23.272727 23.272728h325.818182z m-8.634182-314.600728h-168.727273a8.727273 8.727273 0 0 1-8.680727-8.773818c0-4.840727 3.886545-8.750545 8.680727-8.750545h7.703273l18.618182-75.170909a8.750545 8.750545 0 0 1 8.448-6.632728h98.443636c4.096 0 7.470545 2.839273 8.424728 6.656h0.023272l18.618182 75.147637h7.703273a8.727273 8.727273 0 0 1 8.704 8.750545l-0.023273 0.418909v0.325819a6.050909 6.050909 0 0 1-0.069818 0.372363v0.162909a8.773818 8.773818 0 0 1-7.866182 7.493818z m-119.482182-17.524363c4.794182 0 8.680727-3.933091 8.680728-8.773818v-46.731637a8.727273 8.727273 0 0 0-8.680728-8.773818 8.727273 8.727273 0 0 0-8.680727 8.773818v46.731637c0 4.840727 3.886545 8.773818 8.680727 8.773818z m34.746182 0c4.817455 0 8.704-3.933091 8.704-8.773818v-46.731637a8.727273 8.727273 0 0 0-8.704-8.773818 8.727273 8.727273 0 0 0-8.680727 8.773818v46.731637c0 4.840727 3.886545 8.773818 8.680727 8.773818z m34.769455 0c4.794182 0 8.680727-3.933091 8.680727-8.773818v-46.731637a8.727273 8.727273 0 0 0-8.680727-8.773818 8.727273 8.727273 0 0 0-8.704 8.773818v46.731637c0 4.840727 3.886545 8.773818 8.704 8.773818z m-17.384728 75.938909a8.727273 8.727273 0 0 1-7.540363-13.032727h-0.046546l19.223273-36.608h19.665455l-23.505455 44.8a8.750545 8.750545 0 0 1-7.796364 4.840727z m-34.746181 0a8.657455 8.657455 0 0 1-7.749819-4.864l-23.528727-44.776727h19.665455l19.2 36.584727a9.448727 9.448727 0 0 1 1.093818 4.305454 8.727273 8.727273 0 0 1-8.680727 8.750546zM477.090909 407.272727h-69.818182a11.636364 11.636364 0 0 1-2.094545-23.086545l2.094545-0.186182h69.818182a11.636364 11.636364 0 1 1 0 23.272727z m139.636364 69.818182h-209.454546a11.636364 11.636364 0 0 1-2.094545-23.086545l2.094545-0.186182h209.454546a11.636364 11.636364 0 1 1 0 23.272727z m-69.818182 69.818182h-139.636364a11.636364 11.636364 0 0 1-2.094545-23.086546l2.094545-0.186181h139.636364a11.636364 11.636364 0 1 1 0 23.272727z"  horiz-adv-x="1024" />

    
    <glyph glyph-name="danjumoban" unicode="&#58993;" d="M512 384m-512 0a512 512 0 1 1 1024 0 512 512 0 1 1-1024 0ZM674.909091 616.727273a23.272727 23.272727 0 0 0 23.272727-23.272728v-372.363636a69.818182 69.818182 0 0 0-69.818182-69.818182H395.636364a69.818182 69.818182 0 0 0-69.818182 69.818182V593.454545a23.272727 23.272727 0 0 0 23.272727 23.272728h325.818182z m-58.181818-349.090909h-209.454546a11.636364 11.636364 0 1 1 0-23.272728h209.454546a11.636364 11.636364 0 1 1 0 23.272728z m0 69.818181h-209.454546a11.636364 11.636364 0 1 1 0-23.272727h209.454546a11.636364 11.636364 0 1 1 0 23.272727zM488.727273 570.181818h-93.090909v-116.363636l46.545454 23.272727 46.545455-23.272727v116.363636z"  horiz-adv-x="1024" />

    
    <glyph glyph-name="dangzuzhigongzuojingfei" unicode="&#58994;" d="M512 384m-512 0a512 512 0 1 1 1024 0 512 512 0 1 1-1024 0ZM754.525091 447.534545c-60.718545 202.589091-254.370909 192.372364-254.370909 192.372364 271.476364-133.445818 149.504-322.513455 149.504-322.513454l-157.44 161.256727 60.229818 66.094545-41.076364 38.260364-32.418909-29.602909-60.974545 0.768-124.276364-126.557091 75.287273-68.375273 46.685091 45.149091 160.744727-156.392727c-136.238545-89.6-260.514909 58.181818-260.514909 58.181818l-49.245091-42.891636 37.236364-43.892364-6.353455-8.657455c-17.361455 1.512727-24.506182-6.4-24.506182-6.4-42.868364-41.332364 8.680727-64.302545 8.680728-64.302545 50.013091-10.961455 47.476364 40.587636 47.476363 40.587636l9.425455 11.985455c187.810909-101.562182 298.542545-10.193455 298.542545-10.193455l53.829818-50.781091 73.495273 74.007273-47.965091 52.037818s65.582545 96.698182 38.004364 189.835637"  horiz-adv-x="1024" />

    
    <glyph glyph-name="caigouhetongzhifu" unicode="&#58995;" d="M512 384m-512 0a512 512 0 1 1 1024 0 512 512 0 1 1-1024 0ZM279.272727 477.090909v38.795636c0 17.128727 13.032727 31.022545 29.090909 31.022546h407.272728c16.058182 0 29.090909-13.893818 29.090909-31.022546V477.090909H279.272727z m465.454546-23.272727v-209.454546a69.818182 69.818182 0 0 0-69.818182-69.818181H349.090909a69.818182 69.818182 0 0 0-69.818182 69.818181v209.454546h465.454546z m-53.527273-121.530182h-148.293818a7.68 7.68 0 0 1-7.633455-7.773091 7.68 7.68 0 0 1 7.633455-7.749818h6.749091l16.384-66.536727a7.68 7.68 0 0 1 7.424-5.864728h86.528a7.656727 7.656727 0 0 1 7.400727 5.888l16.384 66.513455h6.749091a7.68 7.68 0 0 1 7.656727 7.749818v0.372364l-0.023273 0.302545-0.046545 0.302546v0.162909a7.726545 7.726545 0 0 1-6.912 6.632727z m-105.029818-15.522909a7.68 7.68 0 0 0 7.656727-7.749818V267.636364a7.68 7.68 0 0 0-7.656727-7.749819 7.68 7.68 0 0 0-7.633455 7.749819v41.378909a7.68 7.68 0 0 0 7.633455 7.749818z m30.557091 0a7.68 7.68 0 0 0 7.633454-7.749818V267.636364a7.68 7.68 0 0 0-7.633454-7.749819 7.68 7.68 0 0 0-7.633455 7.749819v41.378909a7.68 7.68 0 0 0 7.633455 7.749818z m30.557091 0a7.68 7.68 0 0 0 7.633454-7.749818V267.636364a7.68 7.68 0 0 0-7.633454-7.749819 7.68 7.68 0 0 0-7.656728 7.749819v41.378909a7.68 7.68 0 0 0 7.656728 7.749818zM631.994182 384a7.68 7.68 0 0 1-6.632727-11.543273h-0.023273l16.872727-32.418909h17.291636l-20.666181 39.656727a7.68 7.68 0 0 1-6.842182 4.305455z m-30.533818 0a7.610182 7.610182 0 0 1-6.818909-4.305455l-20.689455-39.656727h17.291636l16.896 32.395637a8.401455 8.401455 0 0 1 0.930909 3.816727 7.68 7.68 0 0 1-7.610181 7.749818z m-234.589091-11.543273a14.522182 14.522182 0 1 1 0-29.067636h87.179636a14.522182 14.522182 0 0 1 0 29.067636h-87.156364z m0-58.112a14.522182 14.522182 0 1 1 0-29.067636h58.135272a14.522182 14.522182 0 1 1 0 29.067636h-58.112z"  horiz-adv-x="1024" />

    
    <glyph glyph-name="feiyongbaoxiao" unicode="&#58996;" d="M512 384m-512 0a512 512 0 1 1 1024 0 512 512 0 1 1-1024 0ZM651.636364 616.727273a23.272727 23.272727 0 0 0 23.272727-23.272728v-223.418181a128 128 0 0 1-145.803636-207.36l-4.189091-2.792728a23.272727 23.272727 0 0 0-25.832728 0l-43.985454 29.323637a23.272727 23.272727 0 0 1-25.832727 0l-43.985455-29.323637a23.272727 23.272727 0 0 0-25.832727 0l-46.545455 31.022546a23.272727 23.272727 0 0 0-10.356363 19.362909V593.454545a23.272727 23.272727 0 0 0 23.272727 23.272728h325.818182z m-151.272728-209.454546h-116.363636a11.636364 11.636364 0 0 1-2.094545-23.086545l2.094545-0.186182h116.363636a11.636364 11.636364 0 0 1 0 23.272727z m93.090909 69.818182h-209.454545a11.636364 11.636364 0 0 1-2.094545-23.086545l2.094545-0.186182h209.454545a11.636364 11.636364 0 1 1 0 23.272727z m0 69.818182h-209.454545a11.636364 11.636364 0 0 1-2.094545-23.086546l2.094545-0.186181h209.454545a11.636364 11.636364 0 1 1 0 23.272727zM616.727273 151.272727a104.727273 104.727273 0 1 1 0 209.454546 104.727273 104.727273 0 0 1 0-209.454546z m47.825454 77.940364c5.352727 0 9.611636-4.608 9.611637-10.24 0-5.655273-4.328727-10.24-9.611637-10.24H626.036364v-23.877818c0-5.725091-4.328727-10.309818-9.658182-10.309818-5.329455 0-9.658182 4.584727-9.658182 10.309818v23.877818h-38.586182c-5.329455 0-9.588364 4.584727-9.588363 10.24 0 5.632 4.328727 10.24 9.588363 10.24h38.586182v20.48h-38.539636a9.984 9.984 0 0 0-9.076364 10.24 10.007273 10.007273 0 0 0 9.076364 10.216727h23.342545l-24.948364 26.484364a10.705455 10.705455 0 0 0 0 14.522182 9.192727 9.192727 0 0 0 13.614546 0l35.351273-37.585455 35.374545 37.585455a9.216 9.216 0 0 0 13.591273 0 10.705455 10.705455 0 0 0 0-14.522182l-24.855273-26.484364h24.901818a9.355636 9.355636 0 0 0 8.936728-4.840727c1.885091-3.258182 1.885091-7.447273 0-10.728727a9.378909 9.378909 0 0 0-8.936728-4.840728H626.036364v-20.526545h38.539636z"  horiz-adv-x="1024" />

    
    <glyph glyph-name="feiyongbaozhang" unicode="&#58997;" d="M512 384m-512 0a512 512 0 1 1 1024 0 512 512 0 1 1-1024 0ZM651.636364 616.727273a23.272727 23.272727 0 0 0 23.272727-23.272728v-223.418181a128 128 0 0 1-131.793455-218.763637H372.363636a69.818182 69.818182 0 0 0-69.818181 69.818182V593.454545a23.272727 23.272727 0 0 0 23.272727 23.272728h325.818182z m-151.272728-209.454546h-116.363636a11.636364 11.636364 0 0 1-2.094545-23.086545l2.094545-0.186182h116.363636a11.636364 11.636364 0 0 1 0 23.272727z m93.090909 69.818182h-209.454545a11.636364 11.636364 0 0 1-2.094545-23.086545l2.094545-0.186182h209.454545a11.636364 11.636364 0 1 1 0 23.272727z m0 69.818182h-209.454545a11.636364 11.636364 0 0 1-2.094545-23.086546l2.094545-0.186181h209.454545a11.636364 11.636364 0 1 1 0 23.272727zM616.727273 360.727273a104.727273 104.727273 0 1 0 0-209.454546 104.727273 104.727273 0 0 0 0 209.454546z m10.472727-67.118546h-6.120727L563.665455 237.847273c-2.978909-2.955636-2.978909-2.955636-2.97891-5.934546l-3.048727-26.298182c0-3.025455 0-3.025455 3.048727-3.025454l27.229091 3.025454a10.658909 10.658909 0 0 1 6.167273 2.955637l57.390546 55.808c1.210182 1.117091 1.931636 1.768727 1.954909 2.56 0 1.163636-1.419636 2.606545-4.910546 6.097454l-21.341091 20.596364z m20.852364 14.661818h-5.934546l-6.190545-5.957818v-5.934545l21.341091-20.596364h6.097454l6.190546 5.934546-0.232728 5.957818-21.271272 20.573091z"  horiz-adv-x="1024" />

    
    <glyph glyph-name="dianshangcaigoubaozhang" unicode="&#58998;" d="M512 384m-512 0a512 512 0 1 1 1024 0 512 512 0 1 1-1024 0ZM674.909091 616.727273a23.272727 23.272727 0 0 0 23.272727-23.272728v-372.363636a69.818182 69.818182 0 0 0-69.818182-69.818182H395.636364a69.818182 69.818182 0 0 0-69.818182 69.818182V593.454545a23.272727 23.272727 0 0 0 23.272727 23.272728h325.818182z m-8.634182-314.600728h-168.727273a8.727273 8.727273 0 0 1-8.680727-8.773818c0-4.840727 3.886545-8.750545 8.680727-8.750545h7.703273l18.618182-75.170909a8.750545 8.750545 0 0 1 8.448-6.632728h98.443636c4.096 0 7.470545 2.839273 8.424728 6.656h0.023272l18.618182 75.147637h7.703273a8.727273 8.727273 0 0 1 8.704 8.750545l-0.023273 0.418909v0.325819a6.050909 6.050909 0 0 1-0.069818 0.372363v0.162909a8.773818 8.773818 0 0 1-7.866182 7.493818z m-119.482182-17.524363c4.794182 0 8.680727-3.933091 8.680728-8.773818v-46.731637a8.727273 8.727273 0 0 0-8.680728-8.773818 8.727273 8.727273 0 0 0-8.680727 8.773818v46.731637c0 4.840727 3.886545 8.773818 8.680727 8.773818z m34.746182 0c4.817455 0 8.704-3.933091 8.704-8.773818v-46.731637a8.727273 8.727273 0 0 0-8.704-8.773818 8.727273 8.727273 0 0 0-8.680727 8.773818v46.731637c0 4.840727 3.886545 8.773818 8.680727 8.773818z m34.769455 0c4.794182 0 8.680727-3.933091 8.680727-8.773818v-46.731637a8.727273 8.727273 0 0 0-8.680727-8.773818 8.727273 8.727273 0 0 0-8.704 8.773818v46.731637c0 4.840727 3.886545 8.773818 8.704 8.773818z m-17.384728 75.938909a8.727273 8.727273 0 0 1-7.540363-13.032727h-0.046546l19.223273-36.608h19.665455l-23.505455 44.8a8.750545 8.750545 0 0 1-7.796364 4.840727z m-34.746181 0a8.657455 8.657455 0 0 1-7.749819-4.864l-23.528727-44.776727h19.665455l19.2 36.584727a9.448727 9.448727 0 0 1 1.093818 4.305454 8.727273 8.727273 0 0 1-8.680727 8.750546z m-180.759273 146.013091c-17.035636-29.300364-13.940364-65.093818 6.167273-84.642909 4.654545-4.887273 17.012364-14.638545 35.584-14.638546 15.476364 0 35.584 4.887273 60.322909 21.178182 3.095273 3.234909 4.654545 8.122182 1.559272 13.009455-3.095273 8.145455-7.749818 9.774545-12.381091 4.887272-32.488727-21.178182-58.786909-24.436364-74.24-11.403636l-4.654545 4.887273c24.762182 4.887273 92.811636 24.413091 89.716364 68.352-1.536 17.92-13.917091 32.558545-32.488728 37.445818-20.107636 4.887273-49.477818-3.258182-69.585454-39.074909zM593.454545 453.818182h-69.818181a11.636364 11.636364 0 0 1-2.094546-23.086546l2.094546-0.186181h69.818181a11.636364 11.636364 0 1 1 0 23.272727z m-145.082181 77.149091c10.821818-1.629091 17.012364-11.403636 18.571636-21.154909 1.536-26.042182-52.596364-45.568-77.358545-50.455273-3.095273 13.032727-1.536 27.671273 7.749818 39.051636 13.917091 22.807273 30.929455 32.581818 44.846545 32.581818h6.190546zM640 523.636364h-116.363636a11.636364 11.636364 0 0 1-2.094546-23.086546l2.094546-0.186182h116.363636a11.636364 11.636364 0 1 1 0 23.272728z"  horiz-adv-x="1024" />

    
    <glyph glyph-name="huiyifeiyewushenqing" unicode="&#58999;" d="M512 384m-512 0a512 512 0 1 1 1024 0 512 512 0 1 1-1024 0ZM407.016727 333.777455c-2.513455 1.117091-4.189091 1.954909-4.189091 1.954909l-0.279272 25.413818s10.053818 7.540364 13.405091 31.837091c6.423273-1.675636 8.378182 7.261091 8.936727 13.125818 0.279273 5.585455 3.630545 23.458909-3.909818 21.783273 1.675636 11.729455 2.792727 22.341818 2.234181 28.206545-1.954909 19.828364-15.639273 40.494545-50.548363 41.890909-29.602909-1.396364-48.872727-22.341818-50.827637-41.890909-0.558545-5.585455 0.558545-16.197818 2.234182-28.206545-7.819636 1.675636-4.468364-16.197818-4.189091-21.783273 0.279273-5.864727 2.513455-15.080727 8.936728-13.125818 3.072-24.017455 13.405091-31.837091 13.405091-31.837091l-0.279273-25.693091s-6.423273-3.909818-33.512727-15.080727-18.711273-2.234182-40.773819-13.125819C232.727273 289.931636 232.727273 242.734545 232.727273 242.734545c0-7.261091 5.864727-12.846545 13.125818-12.846545h63.115636c0 44.125091 39.377455 82.664727 98.024728 103.889455z m238.498909-29.60291c-28.206545 13.963636-17.314909 3.351273-51.665454 17.31491-34.350545 14.242909-42.728727 18.711273-42.728727 18.711272l-0.279273 32.395637s12.846545 9.774545 17.035636 40.494545c8.098909-2.234182 10.891636 9.495273 11.170909 16.756364 0.558545 7.261091 4.747636 29.602909-5.026909 27.648 1.954909 15.080727 3.630545 28.485818 2.792727 35.746909-2.513455 25.134545-20.107636 51.665455-64.512 53.341091-37.701818-1.954909-62.277818-28.206545-64.791272-53.341091-0.837818-7.261091 0.837818-20.666182 2.792727-35.746909-9.774545 1.954909-5.585455-20.386909-5.306182-27.648 0.558545-7.540364 3.072-19.269818 11.170909-16.756364 3.909818-30.72 17.035636-40.494545 17.035637-40.494545l-0.279273-32.674909s-8.098909-5.026909-42.728727-18.990546c-34.350545-14.242909-23.738182-3.072-51.665455-16.756364-44.404364-21.783273-44.404364-82.106182-44.404364-82.106181 0-9.216 7.540364-16.477091 16.756364-16.477091h322.280727c9.216 0 16.756364 7.261091 16.756364 16.477091 0 0 0 60.322909-44.404364 82.106181zM791.272727 243.013818s0 47.197091-34.909091 64.512c-22.062545 10.891636-13.684364 1.954909-40.773818 13.125818-27.089455 11.170909-33.512727 15.080727-33.512727 15.080728l-0.279273 25.693091s10.053818 7.819636 13.405091 31.83709c6.423273-1.954909 8.378182 7.261091 8.936727 13.125819 0.279273 5.585455 3.630545 23.458909-4.189091 21.783272 1.675636 11.729455 2.792727 22.341818 2.234182 28.206546-1.954909 19.828364-21.224727 40.494545-50.827636 41.890909-34.909091-1.396364-48.593455-22.062545-50.548364-41.890909-0.558545-5.585455 0.558545-16.197818 2.234182-28.206546-7.819636 1.675636-4.468364-16.197818-3.909818-21.783272 0.279273-5.864727 2.513455-15.080727 8.936727-13.125819 3.072-24.017455 13.405091-31.837091 13.405091-31.83709l-0.279273-25.413819s-1.396364-0.837818-4.189091-1.954909c58.647273-21.504 98.304-59.764364 98.304-103.889454h63.115637c6.981818-0.279273 12.846545 5.585455 12.846545 12.846545z"  horiz-adv-x="1024" />

    
    <glyph glyph-name="feiyongbiaozhun" unicode="&#59000;" d="M512 384m-512 0a512 512 0 1 1 1024 0 512 512 0 1 1-1024 0ZM452.770909 661.690182l58.530909-41.495273 42.938182 39.470546c5.003636 4.654545 13.009455 4.654545 17.989818 0l125.858909-117.387637a11.450182 11.450182 0 0 0 0-16.779636l-2.164363-1.861818H721.454545a46.545455 46.545455 0 0 0 46.545455-46.545455v-256a69.818182 69.818182 0 0 0-69.818182-69.818182H325.818182a69.818182 69.818182 0 0 0-69.818182 69.818182V477.090909a46.545455 46.545455 0 0 0 46.545455 46.545455h46.94109l85.92291 133.725091a13.218909 13.218909 0 0 0 17.361454 4.328727z m103.377455-255.953455a10.682182 10.682182 0 0 1-3.630546-0.698182l-0.232727-0.09309-19.712-10.868364-0.232727-0.162909a8.96 8.96 0 0 1-3.025455-10.868364c0-0.069818 1.698909-3.956364 1.698909-7.586909 0-10.938182-8.913455-19.781818-19.781818-19.781818h-0.791273c-3.095273 0-5.701818-2.769455-6.516363-7.074909-0.046545-0.349091-1.582545-8.517818-1.582546-14.941091 0-6.446545 1.536-14.615273 1.605818-14.941091 0.791273-4.258909 3.397818-7.144727 6.493091-7.144727h0.744728c10.938182 0 19.781818-8.913455 19.781818-19.781818 0-3.560727-1.722182-7.517091-1.722182-7.58691a8.983273 8.983273 0 0 1 2.978909-10.84509l0.232727-0.116364 18.688-10.472727 0.232728-0.116364a9.774545 9.774545 0 0 1 3.67709-0.744727 10.24 10.24 0 0 1 7.191273 2.978909c2.187636 2.420364 9.821091 9.216 15.918546 9.216 6.144 0 13.614545-6.749091 16.058181-9.378909a9.774545 9.774545 0 0 1 10.775273-2.304l0.232727 0.116363 19.386182 10.705455 0.162909 0.116364a8.936727 8.936727 0 0 1 3.048728 10.798545c0 0.046545-1.722182 4.026182-1.722182 7.586909 0 10.938182 8.913455 19.781818 19.781818 19.781818h0.791273c3.118545 0 5.701818 2.746182 6.516363 7.074909 0.046545 0.325818 1.605818 8.494545 1.605819 14.941091 0 6.609455-1.512727 14.778182-1.559273 15.127273-0.814545 4.235636-3.397818 7.051636-6.516364 7.051636h-0.791273a19.805091 19.805091 0 0 0-19.781818 19.781819c0 3.560727 1.745455 7.540364 1.745455 7.586909a8.983273 8.983273 0 0 1-3.002182 10.868363l-0.232727 0.116364-19.013818 10.565818-0.232728 0.116364a10.123636 10.123636 0 0 1-10.798545-2.117818c-2.327273-2.420364-9.681455-8.680727-15.592727-8.680728-5.981091 0-13.405091 6.376727-15.685819 8.843637a10.077091 10.077091 0 0 1-7.214545 2.932363z m-92.904728-105.658182h-70.144c-8.843636 0-16.034909-7.237818-16.034909-16.034909 0-8.843636 7.237818-16.058182 16.058182-16.058181h70.120727c8.843636 0 16.058182 7.261091 16.058182 16.058181a16.128 16.128 0 0 1-16.058182 16.058182z m115.386182 68.933819a35.234909 35.234909 0 1 0 0-70.493091 35.234909 35.234909 0 0 0 0 70.493091z m-142.196363-20.759273h-43.333819c-8.843636 0-16.034909-7.237818-16.034909-16.034909 0-8.843636 7.237818-16.058182 16.058182-16.058182h43.333818a16.058182 16.058182 0 1 1 0 32.069818z m26.810181 48.174545h-70.144c-8.843636 0-16.034909-7.237818-16.034909-16.034909 0-8.843636 7.237818-16.058182 16.058182-16.058182h70.120727c8.843636 0 16.058182 7.261091 16.058182 16.058182a16.128 16.128 0 0 1-16.058182 16.058182z m-13.102545 227.025455L383.767273 523.636364h22.597818l81.105454 74.635636-37.329454 25.181091z m114.106182 5.282909L446.161455 523.636364h214.132363l7.447273 7.214545-103.493818 97.885091z"  horiz-adv-x="1024" />

    
    <glyph glyph-name="jianshehetongzhifu" unicode="&#59001;" d="M512 384m-512 0a512 512 0 1 1 1024 0 512 512 0 1 1-1024 0ZM279.272727 477.090909v38.795636c0 17.128727 13.032727 31.022545 29.090909 31.022546h407.272728c16.058182 0 29.090909-13.893818 29.090909-31.022546V477.090909H279.272727z m465.454546-23.272727v-209.454546a69.818182 69.818182 0 0 0-69.818182-69.818181H349.090909a69.818182 69.818182 0 0 0-69.818182 69.818181v209.454546h465.454546z m-90.251637-36.258909l-1.582545-0.418909c-8.401455-11.054545-11.450182-22.714182-4.514909-35.700364a5.026909 5.026909 0 0 0 0.162909-3.770182c-4.026182-9.704727-7.796364-19.502545-12.381091-28.928-6.912-14.196364-14.429091-28.136727-21.597091-42.007273-1.349818 0.349091-1.908364 0.395636-2.373818 0.651637l-20.666182 11.799273c-10.705455 6.097455-13.963636 5.189818-20.317091-5.678546-5.818182-9.937455-11.101091-20.177455-17.408-29.789091-6.981818-10.705455-8.936727-22.085818-4.421818-33.559273 5.189818-13.032727 12.101818-25.413818 18.269091-38.097454 9.704727-0.395636 19.549091-1.954909 29.090909-0.954182 14.615273 1.582545 29.858909 3.700364 38.725818 17.850182 7.842909 12.520727 15.057455 25.437091 22.272 38.330182 4.235636 7.586909 3.025455 11.892364-4.561454 16.290909-8.029091 4.654545-16.290909 8.913455-25.250909 13.800727 12.823273 19.828364 24.738909 38.772364 37.329454 57.250909 2.909091 4.328727 7.749818 9.541818 12.288 10.123637 14.196364 1.954909 22.574545 9.704727 27.694546 22.202181l-0.41891 1.582546-50.338909 29.021091z m-50.548363-136.517818a4.421818 4.421818 0 0 0 7.819636-4.189091l-24.506182-45.614546a4.421818 4.421818 0 0 0-7.819636 4.189091z m53.154909 119.063272l31.325091-17.780363c-5.399273-6.120727-13.661091-7.842909-22.155637-3.630546-8.192 4.096-11.357091 12.171636-9.169454 21.410909z m-290.210909-27.648a14.522182 14.522182 0 1 1 0-29.067636h87.179636a14.522182 14.522182 0 0 1 0 29.067636h-87.156364z m0-58.112a14.522182 14.522182 0 1 1 0-29.067636h58.135272a14.522182 14.522182 0 1 1 0 29.067636h-58.112z"  horiz-adv-x="1024" />

    
    </font>
</defs>
</svg>
